<svg id="svg" version="1.1" xmlns="http://www.w3.org/2000/svg" xmlns:xlink="http://www.w3.org/1999/xlink" width="400" height="400" viewBox="0, 0, 400,400"><g id="svgg"><path id="path0" d="M28.000 146.972 C 20.230 149.134,17.002 153.838,17.001 163.000 C 17.000 171.762,18.330 173.599,26.300 175.835 C 26.978 176.025,26.967 182.760,26.287 183.608 C 26.019 183.943,24.630 185.078,23.200 186.130 C 21.770 187.183,20.330 188.262,20.000 188.528 C 19.670 188.794,18.770 189.453,18.000 189.993 C 17.230 190.532,16.400 191.160,16.156 191.387 C 15.911 191.614,14.966 192.482,14.056 193.316 C 13.145 194.150,12.400 194.962,12.400 195.120 C 12.400 195.279,11.995 195.856,11.499 196.404 C 10.693 197.295,9.233 200.017,8.390 202.200 C 8.220 202.640,7.838 203.630,7.540 204.400 C 7.111 205.513,7.000 210.185,7.000 227.200 L 7.000 248.600 8.106 250.923 C 10.267 255.464,13.588 258.084,19.046 259.556 C 21.755 260.287,80.518 260.168,83.366 259.426 C 89.461 257.838,93.133 254.296,94.626 248.566 C 95.349 245.789,95.474 209.344,94.770 206.646 C 94.534 205.741,94.165 204.280,93.951 203.400 C 92.778 198.572,88.480 193.134,82.400 188.785 C 80.750 187.604,78.545 185.938,77.500 185.082 L 75.600 183.526 75.600 179.563 C 75.600 176.058,75.681 175.599,76.300 175.594 C 79.852 175.563,84.369 171.704,85.040 168.125 C 86.985 157.762,82.473 149.261,73.800 146.944 C 71.016 146.200,30.685 146.225,28.000 146.972 M153.600 147.181 C 141.079 148.926,132.873 155.864,130.398 166.800 C 130.124 168.010,129.743 169.522,129.550 170.160 C 129.358 170.798,129.202 182.858,129.204 196.960 L 129.207 222.600 130.182 226.425 C 132.824 236.796,137.830 242.346,147.400 245.517 C 148.981 246.040,152.211 246.651,156.400 247.218 C 160.509 247.774,185.071 247.489,188.400 246.846 C 194.134 245.739,193.028 245.291,198.298 250.855 C 207.076 260.123,207.636 260.485,210.730 258.889 C 215.698 256.325,215.075 253.749,207.621 246.043 C 202.934 241.197,203.040 241.574,205.585 238.779 C 206.676 237.581,207.801 236.150,208.084 235.600 C 208.367 235.050,208.689 234.510,208.800 234.400 C 208.911 234.290,209.247 233.660,209.547 233.000 C 209.848 232.340,210.252 231.487,210.447 231.105 C 210.641 230.723,210.800 230.084,210.800 229.685 C 210.800 229.286,210.951 228.789,211.136 228.580 C 211.462 228.210,211.888 226.333,212.769 221.376 C 213.357 218.068,213.353 176.232,212.764 172.307 C 212.063 167.634,210.920 163.698,209.480 161.000 C 209.245 160.560,208.783 159.666,208.454 159.014 C 206.190 154.528,199.140 149.731,192.200 147.954 C 188.393 146.979,159.237 146.395,153.600 147.181 M245.703 147.082 C 243.714 147.465,242.489 149.364,242.210 152.496 C 241.526 160.157,242.172 243.759,242.923 244.866 C 244.466 247.138,248.136 247.932,250.942 246.601 C 253.822 245.234,253.776 245.555,254.000 225.200 L 254.200 207.000 264.646 206.893 C 272.803 206.810,275.185 206.900,275.520 207.304 C 276.271 208.208,290.800 232.513,290.800 232.864 C 290.800 233.049,290.959 233.200,291.153 233.200 C 291.348 233.200,291.610 233.515,291.736 233.900 C 291.998 234.700,293.732 237.688,294.847 239.262 C 295.261 239.846,295.600 240.432,295.600 240.565 C 295.600 240.699,296.623 242.360,297.873 244.258 C 301.384 249.590,304.593 250.358,308.092 246.704 C 310.760 243.918,310.678 241.849,307.723 237.338 C 307.359 236.783,306.777 235.831,306.430 235.223 C 304.965 232.656,300.988 226.043,299.744 224.106 C 299.005 222.955,298.400 221.907,298.400 221.778 C 298.400 221.649,297.860 220.759,297.200 219.800 C 296.540 218.841,296.000 217.936,296.000 217.790 C 296.000 217.643,295.661 217.046,295.247 216.462 C 294.833 215.878,294.135 214.770,293.697 214.000 C 293.258 213.230,292.142 211.364,291.217 209.853 C 289.282 206.694,289.312 206.617,292.829 205.746 C 302.263 203.409,307.882 197.176,310.365 186.294 C 310.925 183.842,310.932 169.202,310.374 167.046 C 309.364 163.140,309.174 162.578,307.838 159.533 C 304.962 152.981,297.930 148.422,288.800 147.192 C 286.233 146.846,247.441 146.747,245.703 147.082 M73.281 156.419 C 75.228 157.308,76.043 159.318,75.916 162.919 L 75.800 166.200 51.000 166.200 L 26.200 166.200 26.083 163.096 C 25.949 159.543,26.561 157.782,28.302 156.702 C 29.622 155.884,71.530 155.620,73.281 156.419 M187.600 158.995 C 188.590 159.153,189.571 159.444,189.780 159.641 C 189.989 159.838,190.487 160.000,190.887 160.000 C 193.037 160.000,197.012 163.091,198.712 166.085 C 200.924 169.981,201.000 171.002,201.000 197.000 C 201.000 224.970,200.824 226.342,196.679 230.700 C 194.945 232.523,194.853 232.481,190.346 227.822 C 184.583 221.863,182.466 221.108,179.559 223.974 C 176.965 226.530,177.297 228.585,180.952 232.600 C 183.899 235.836,184.276 235.753,167.885 235.479 C 141.379 235.036,140.414 233.677,140.401 196.800 C 140.390 165.422,141.828 161.634,154.800 158.866 C 156.825 158.434,184.772 158.544,187.600 158.995 M288.904 158.986 C 289.731 159.153,290.506 159.449,290.627 159.644 C 290.748 159.840,291.119 160.000,291.452 160.000 C 296.756 160.000,300.258 170.625,298.835 182.400 C 297.994 189.355,295.734 192.430,290.000 194.420 C 288.474 194.949,256.889 195.510,255.019 195.041 L 254.000 194.785 254.000 176.859 C 254.000 167.000,254.124 158.810,254.275 158.658 C 254.641 158.293,286.975 158.599,288.904 158.986 M336.400 172.740 C 331.372 175.289,330.548 178.302,333.732 182.491 C 334.446 183.431,336.733 186.450,338.813 189.200 C 340.893 191.950,342.698 194.290,342.824 194.400 C 343.357 194.864,351.600 205.880,351.600 206.128 C 351.600 206.278,350.385 208.126,348.900 210.235 C 347.415 212.344,345.614 214.909,344.899 215.935 C 344.183 216.961,343.373 218.084,343.099 218.432 C 342.824 218.779,342.420 219.346,342.200 219.691 C 341.980 220.036,340.861 221.642,339.714 223.259 C 338.566 224.877,337.438 226.470,337.206 226.800 C 336.974 227.130,335.689 228.930,334.350 230.800 C 331.943 234.162,330.432 236.351,329.129 238.364 C 325.932 243.304,332.788 249.956,337.366 246.356 C 338.396 245.545,341.480 241.575,344.012 237.800 C 344.750 236.700,345.499 235.740,345.677 235.667 C 345.855 235.593,346.000 235.293,346.000 235.000 C 346.000 234.707,346.136 234.407,346.303 234.333 C 346.580 234.212,349.652 229.945,354.321 223.200 C 359.174 216.189,359.327 216.068,360.840 218.070 C 361.368 218.768,362.530 220.253,363.422 221.370 C 364.315 222.486,367.009 226.010,369.410 229.200 C 371.811 232.390,373.871 235.090,373.989 235.200 C 374.106 235.310,375.012 236.476,376.001 237.791 C 376.990 239.106,378.096 240.546,378.457 240.991 C 378.819 241.436,379.907 242.790,380.875 244.000 C 384.280 248.255,386.711 248.531,390.300 245.072 C 392.637 242.819,392.710 240.036,390.505 237.230 C 390.232 236.884,387.394 233.180,384.197 229.000 C 381.000 224.820,378.163 221.126,377.892 220.791 C 377.622 220.456,376.590 219.106,375.601 217.791 C 374.612 216.476,373.709 215.310,373.595 215.200 C 372.779 214.414,368.000 207.814,368.000 207.474 C 368.000 207.141,374.316 198.478,375.199 197.600 C 375.310 197.490,376.566 195.870,377.991 194.000 C 379.416 192.130,380.731 190.420,380.912 190.200 C 389.737 179.471,390.477 174.670,383.654 172.418 C 380.255 171.296,379.631 171.869,369.496 185.423 C 360.426 197.553,360.654 197.276,359.977 196.992 C 359.659 196.860,358.729 195.817,357.909 194.674 C 357.090 193.532,356.064 192.148,355.631 191.599 C 353.133 188.435,349.719 184.020,346.509 179.800 C 342.582 174.639,341.060 173.029,339.800 172.700 C 339.360 172.585,338.730 172.387,338.400 172.260 C 338.070 172.133,337.170 172.349,336.400 172.740 M66.000 181.400 C 66.262 188.745,65.381 187.501,75.926 195.400 C 86.270 203.148,86.000 202.296,85.999 227.315 C 85.997 245.952,85.970 246.644,85.190 247.924 C 83.631 250.481,84.745 250.400,51.000 250.400 C 18.060 250.400,18.505 250.427,17.052 248.353 C 16.100 246.994,16.061 207.862,17.009 205.175 C 17.860 202.764,20.443 199.482,22.697 197.948 C 23.744 197.236,24.690 196.542,24.800 196.407 C 24.910 196.272,25.630 195.729,26.400 195.200 C 27.170 194.671,27.890 194.128,28.000 193.993 C 28.110 193.858,29.010 193.195,30.000 192.520 C 30.990 191.844,32.655 190.494,33.700 189.518 L 35.600 187.744 35.600 181.939 C 35.600 178.746,35.722 176.011,35.871 175.862 C 36.021 175.713,42.816 175.638,50.971 175.695 L 65.800 175.800 66.000 181.400 M48.923 201.604 C 47.031 202.366,46.614 203.749,46.400 209.980 L 46.200 215.800 40.400 216.000 C 33.362 216.243,31.600 217.125,31.600 220.406 C 31.600 223.894,33.337 224.800,40.027 224.800 C 46.991 224.800,46.400 224.219,46.400 231.059 C 46.400 236.142,46.600 237.032,48.120 238.700 C 49.255 239.947,52.639 239.982,53.949 238.762 C 55.361 237.446,55.600 236.303,55.600 230.854 C 55.600 224.432,55.198 224.800,62.225 224.800 C 68.601 224.800,69.675 224.341,70.231 221.377 C 70.978 217.395,68.835 216.000,61.974 216.000 C 55.037 216.000,55.600 216.514,55.600 210.183 C 55.600 202.339,53.571 199.732,48.923 201.604 " stroke="none" fill="#3e5d85" fill-rule="evenodd"></path><path id="path1" d="M0.000 200.000 L 0.000 400.000 200.000 400.000 L 400.000 400.000 400.000 200.000 L 400.000 0.000 200.000 0.000 L 0.000 0.000 0.000 200.000 M74.681 146.456 C 78.535 148.025,79.995 148.908,81.611 150.649 C 89.424 159.063,86.558 175.908,77.300 175.989 L 76.000 176.000 76.000 179.561 L 76.000 183.122 81.300 187.152 C 89.327 193.254,90.687 194.704,93.166 199.800 C 95.646 204.900,95.600 204.375,95.600 227.589 L 95.600 248.886 94.349 251.508 C 92.360 255.675,89.141 258.315,84.040 259.961 C 82.076 260.595,19.998 260.575,18.028 259.939 C 11.493 257.831,7.886 254.090,6.440 247.923 C 5.751 244.985,5.846 210.186,6.552 206.600 C 8.250 197.981,10.494 194.881,20.500 187.330 L 26.000 183.179 26.000 179.589 L 26.000 176.000 24.796 176.000 C 19.318 176.000,16.400 171.560,16.400 163.228 C 16.400 154.016,19.103 149.539,26.325 146.790 C 28.640 145.909,72.592 145.605,74.681 146.456 M187.554 146.430 C 196.231 147.841,200.772 149.923,205.500 154.655 C 207.315 156.472,208.800 158.165,208.800 158.417 C 208.800 158.670,209.129 159.354,209.532 159.938 C 210.412 161.215,211.767 164.724,212.337 167.200 C 212.564 168.190,212.942 169.845,213.175 170.877 C 213.449 172.088,213.600 181.247,213.600 196.677 C 213.600 220.991,213.543 222.131,212.050 228.000 C 210.919 232.449,208.191 237.188,205.084 240.104 C 203.708 241.395,203.501 241.010,208.142 245.775 C 215.760 253.596,216.334 256.295,211.039 259.398 C 207.999 261.180,206.387 260.389,200.800 254.382 C 192.418 245.368,193.503 246.285,191.750 246.739 C 187.390 247.866,185.209 248.000,171.269 247.993 C 139.732 247.978,131.792 242.807,128.430 220.093 C 127.856 216.215,127.853 177.822,128.426 173.907 C 129.187 168.702,130.182 164.330,130.817 163.400 C 130.967 163.180,131.199 162.542,131.332 161.982 C 132.980 155.055,142.109 148.577,153.000 146.607 C 156.616 145.953,183.765 145.814,187.554 146.430 M289.600 146.586 C 296.189 147.838,300.619 149.905,303.895 153.256 C 307.768 157.219,309.121 159.811,310.862 166.600 C 311.583 169.410,311.578 183.816,310.855 187.000 C 308.887 195.671,304.354 201.721,297.598 204.695 C 294.339 206.130,293.571 206.400,292.755 206.400 C 290.123 206.400,290.183 207.445,293.069 211.849 C 293.438 212.412,294.023 213.371,294.370 213.980 C 295.661 216.250,302.173 227.074,303.463 229.094 C 304.198 230.245,304.800 231.370,304.800 231.594 C 304.800 231.817,304.980 232.000,305.200 232.000 C 305.420 232.000,305.600 232.197,305.600 232.438 C 305.600 232.679,305.939 233.354,306.353 233.938 C 306.767 234.522,307.487 235.675,307.953 236.500 C 308.419 237.325,309.160 238.635,309.600 239.412 C 311.647 243.025,310.007 247.013,305.669 248.969 C 302.700 250.308,299.411 248.678,297.518 244.929 C 296.765 243.439,295.849 241.849,295.600 241.600 C 295.490 241.490,295.175 240.995,294.900 240.500 C 294.625 240.005,294.175 239.195,293.900 238.700 C 293.625 238.205,293.310 237.710,293.200 237.600 C 293.090 237.490,292.740 236.950,292.421 236.400 C 292.103 235.850,289.088 230.829,285.721 225.242 C 282.355 219.655,279.600 215.008,279.600 214.914 C 279.600 214.821,279.099 213.992,278.488 213.072 C 277.876 212.152,277.127 210.908,276.824 210.307 C 275.412 207.510,275.813 207.600,264.784 207.600 L 254.800 207.600 254.782 224.300 C 254.764 241.519,254.616 243.394,253.092 245.717 C 251.102 248.751,244.750 248.625,242.709 245.511 C 241.195 243.200,241.147 241.525,241.276 195.600 C 241.417 145.075,241.153 148.895,244.635 146.907 C 246.629 145.768,283.898 145.502,289.600 146.586 M28.926 157.180 C 27.135 158.272,26.800 159.123,26.800 162.574 L 26.800 165.600 51.200 165.600 L 75.600 165.600 75.600 163.061 C 75.600 160.049,74.821 158.245,73.054 157.167 C 71.092 155.971,30.889 155.983,28.926 157.180 M156.400 159.277 C 149.640 160.228,145.396 162.604,143.750 166.360 C 141.549 171.382,141.541 171.500,141.700 198.000 C 141.780 211.310,141.983 222.740,142.152 223.400 C 142.997 226.693,144.329 229.062,146.364 230.892 C 150.110 234.260,153.797 234.858,169.915 234.711 L 182.029 234.600 180.370 232.800 C 176.224 228.301,176.223 225.303,180.369 222.510 C 183.124 220.653,185.176 221.645,190.931 227.614 L 194.861 231.691 196.057 230.546 C 200.188 226.591,200.585 223.686,200.593 197.400 C 200.602 167.695,200.098 165.248,193.200 161.526 C 188.735 159.116,166.990 157.788,156.400 159.277 M255.067 159.067 C 254.920 159.213,254.800 167.223,254.800 176.867 L 254.800 194.400 270.980 194.400 C 296.495 194.400,298.400 193.178,298.400 176.814 C 298.400 164.187,295.653 160.438,285.532 159.253 C 281.428 158.772,255.519 158.614,255.067 159.067 M340.113 172.139 C 342.023 172.939,343.304 174.470,355.642 190.698 C 360.080 196.535,360.345 196.798,360.861 195.876 C 361.057 195.526,361.442 195.006,361.716 194.720 C 361.990 194.434,364.363 191.320,366.991 187.800 C 369.618 184.280,371.874 181.310,372.003 181.200 C 372.133 181.090,372.671 180.370,373.200 179.600 C 373.729 178.830,374.269 178.110,374.400 178.000 C 374.531 177.890,375.065 177.170,375.585 176.400 C 378.690 171.809,381.920 170.479,385.200 172.440 C 388.966 174.690,390.049 177.657,388.296 180.918 C 387.448 182.497,386.525 183.787,382.368 189.200 C 381.439 190.410,379.581 192.840,378.239 194.600 C 376.898 196.360,375.707 197.890,375.593 198.000 C 375.479 198.110,374.039 200.000,372.393 202.200 C 370.747 204.400,369.265 206.260,369.100 206.333 C 368.200 206.734,371.395 212.255,374.000 214.800 C 374.112 214.910,374.744 215.709,375.402 216.576 C 376.061 217.443,378.490 220.618,380.800 223.631 C 383.110 226.645,386.347 230.885,387.993 233.055 C 389.639 235.225,391.079 237.090,391.193 237.200 C 394.720 240.592,391.076 248.000,385.882 248.000 C 383.541 248.000,381.975 246.640,377.600 240.806 C 377.050 240.073,375.790 238.445,374.800 237.188 C 373.810 235.931,371.200 232.516,369.000 229.599 C 366.800 226.682,364.814 224.093,364.587 223.847 C 364.360 223.601,363.736 222.770,363.200 222.000 C 362.664 221.230,361.983 220.350,361.686 220.044 C 361.388 219.738,360.867 219.063,360.526 218.544 C 359.937 217.645,358.800 217.237,358.800 217.925 C 358.800 218.103,358.476 218.598,358.081 219.025 C 357.685 219.451,356.569 220.970,355.600 222.400 C 354.631 223.830,353.689 225.180,353.506 225.400 C 353.322 225.620,351.476 228.230,349.402 231.200 C 343.924 239.046,342.648 240.845,342.199 241.349 C 341.978 241.597,341.174 242.717,340.412 243.838 C 337.473 248.162,334.469 249.074,330.979 246.700 C 326.909 243.932,326.679 239.653,330.373 235.400 C 330.755 234.960,332.312 232.819,333.834 230.641 C 335.355 228.464,337.770 225.021,339.200 222.989 C 340.630 220.958,342.601 218.150,343.581 216.748 C 344.560 215.347,345.516 214.020,345.704 213.800 C 346.815 212.506,350.799 206.527,350.799 206.153 C 350.800 205.798,347.264 200.853,346.401 200.000 C 346.289 199.890,345.389 198.720,344.400 197.400 C 343.411 196.080,342.503 194.910,342.382 194.800 C 342.261 194.690,341.726 193.970,341.194 193.200 C 340.662 192.430,340.000 191.567,339.723 191.281 C 338.882 190.414,333.472 183.260,332.308 181.475 C 329.108 176.569,334.704 169.875,340.113 172.139 M36.400 181.340 C 36.400 188.824,36.717 188.297,28.545 194.407 C 20.612 200.340,19.569 201.335,18.073 204.400 L 17.000 206.600 16.886 226.628 L 16.772 246.657 17.653 247.777 C 19.447 250.057,18.596 250.000,51.061 250.000 C 80.316 250.000,80.983 249.983,82.631 249.185 C 85.289 247.899,85.235 248.395,85.111 226.390 L 85.000 206.600 83.857 204.344 C 82.313 201.297,80.996 200.027,73.674 194.527 C 64.886 187.927,65.600 189.068,65.600 181.626 L 65.600 176.000 51.000 176.000 L 36.400 176.000 36.400 181.340 M54.334 201.720 C 56.138 203.405,56.400 204.446,56.400 209.930 L 56.400 215.099 62.100 215.276 C 68.516 215.475,69.109 215.684,70.452 218.216 C 71.768 220.696,71.193 222.787,68.640 224.801 C 68.079 225.243,66.407 225.452,62.240 225.600 L 56.600 225.800 56.502 230.800 C 56.357 238.211,55.083 240.480,51.067 240.480 C 47.048 240.480,46.051 238.749,45.911 231.531 L 45.800 225.800 40.000 225.600 C 32.580 225.344,31.200 224.565,31.200 220.633 C 31.200 216.258,32.479 215.485,40.083 215.269 L 46.000 215.101 46.000 209.524 C 46.000 203.746,46.231 202.704,47.755 201.600 C 49.716 200.180,52.743 200.235,54.334 201.720 " stroke="none" fill="#fbfbfb" fill-rule="evenodd"></path><path id="path2" d="M27.600 146.400 C 26.836 146.894,27.658 146.894,29.200 146.400 L 30.200 146.080 29.200 146.046 C 28.650 146.027,27.930 146.187,27.600 146.400 M72.033 146.143 C 72.125 146.221,72.830 146.401,73.600 146.542 C 74.585 146.723,74.822 146.682,74.400 146.406 C 73.858 146.050,71.637 145.803,72.033 146.143 M154.400 146.353 C 153.630 146.489,160.909 146.600,170.576 146.600 C 180.242 146.600,187.622 146.486,186.976 146.347 C 185.460 146.022,156.247 146.026,154.400 146.353 M245.739 146.306 C 245.485 146.468,255.286 146.600,267.519 146.600 C 279.752 146.600,289.229 146.486,288.580 146.347 C 286.908 145.989,246.297 145.950,245.739 146.306 M23.800 147.966 C 22.700 148.604,21.080 149.907,20.200 150.863 L 18.601 152.600 20.400 150.918 C 21.390 149.993,23.190 148.691,24.400 148.025 C 25.610 147.359,26.420 146.813,26.200 146.811 C 25.980 146.809,24.900 147.329,23.800 147.966 M150.000 147.218 C 149.562 147.515,149.724 147.552,150.600 147.356 C 152.071 147.027,152.390 146.798,151.367 146.806 C 150.945 146.809,150.330 146.995,150.000 147.218 M189.633 146.944 C 189.725 147.023,190.340 147.208,191.000 147.356 C 191.876 147.552,192.038 147.515,191.600 147.218 C 191.060 146.853,189.232 146.598,189.633 146.944 M291.400 147.200 C 292.596 147.714,293.595 147.714,292.800 147.200 C 292.470 146.987,291.840 146.822,291.400 146.834 L 290.600 146.856 291.400 147.200 M78.837 148.737 C 79.824 149.363,81.299 150.656,82.115 151.609 C 82.932 152.563,83.600 153.214,83.600 153.055 C 83.600 152.518,79.834 148.735,78.732 148.165 C 76.886 147.210,76.946 147.538,78.837 148.737 M300.162 150.492 C 300.581 150.771,301.504 151.495,302.215 152.100 C 302.925 152.705,303.623 153.200,303.767 153.200 C 304.217 153.200,301.450 150.941,300.400 150.450 C 299.555 150.056,299.518 150.063,300.162 150.492 M201.600 151.477 C 202.150 151.869,203.680 153.176,205.000 154.382 L 207.400 156.574 205.297 154.372 C 204.141 153.160,202.611 151.853,201.897 151.467 C 200.647 150.791,200.636 150.791,201.600 151.477 M241.393 197.000 C 241.393 221.640,241.441 231.661,241.500 219.269 C 241.559 206.877,241.559 186.717,241.500 174.469 C 241.441 162.221,241.393 172.360,241.393 197.000 M17.781 154.037 C 17.429 154.718,17.212 155.345,17.299 155.432 C 17.386 155.519,17.756 154.962,18.122 154.195 C 18.944 152.470,18.659 152.338,17.781 154.037 M305.368 155.300 C 306.209 156.345,306.977 157.200,307.075 157.200 C 307.392 157.200,305.717 155.026,304.763 154.200 C 304.255 153.760,304.528 154.255,305.368 155.300 M16.600 157.200 C 16.448 157.891,16.407 158.541,16.509 158.642 C 16.611 158.744,16.809 158.253,16.950 157.550 C 17.283 155.883,16.960 155.560,16.600 157.200 M134.000 157.200 C 133.530 157.860,133.236 158.400,133.346 158.400 C 133.456 158.400,133.930 157.860,134.400 157.200 C 134.870 156.540,135.164 156.000,135.054 156.000 C 134.944 156.000,134.470 156.540,134.000 157.200 M28.031 157.436 C 27.354 158.005,26.805 158.680,26.812 158.936 C 26.819 159.191,27.015 159.073,27.247 158.673 C 27.480 158.273,28.239 157.598,28.935 157.174 C 29.631 156.750,29.989 156.402,29.731 156.401 C 29.473 156.401,28.708 156.866,28.031 157.436 M72.600 156.868 C 73.040 157.112,73.679 157.512,74.020 157.756 C 74.360 158.000,74.215 157.795,73.697 157.300 C 73.179 156.805,72.540 156.405,72.278 156.412 C 72.015 156.419,72.160 156.624,72.600 156.868 M85.524 162.018 C 85.638 166.049,85.529 167.825,85.087 169.093 C 84.763 170.025,84.649 170.693,84.834 170.579 C 85.849 169.952,86.442 160.472,85.646 157.618 C 85.496 157.077,85.441 159.057,85.524 162.018 M207.881 157.761 C 208.277 158.289,208.657 158.667,208.728 158.600 C 208.938 158.399,207.834 156.800,207.485 156.800 C 207.308 156.800,207.486 157.232,207.881 157.761 M155.200 159.200 C 154.138 159.424,154.041 159.502,154.800 159.524 C 155.350 159.541,156.520 159.405,157.400 159.223 C 158.734 158.947,158.800 158.893,157.800 158.899 C 157.140 158.902,155.970 159.038,155.200 159.200 M181.633 158.951 C 181.725 159.034,183.060 159.202,184.600 159.326 C 186.752 159.498,187.030 159.469,185.800 159.198 C 184.183 158.842,181.326 158.673,181.633 158.951 M254.496 176.700 L 254.600 194.600 269.800 194.607 L 285.000 194.615 269.892 194.503 L 254.784 194.390 254.892 176.595 C 254.951 166.808,254.863 158.800,254.696 158.800 C 254.529 158.800,254.439 166.855,254.496 176.700 M283.233 158.944 C 283.325 159.023,284.570 159.186,286.000 159.306 C 287.560 159.437,288.200 159.395,287.600 159.202 C 286.612 158.884,282.911 158.665,283.233 158.944 M26.573 162.699 L 26.600 165.800 51.000 165.805 L 75.400 165.809 51.117 165.702 L 26.834 165.594 26.690 162.596 L 26.546 159.597 26.573 162.699 M189.000 160.000 C 189.440 160.189,190.070 160.344,190.400 160.344 C 190.778 160.344,190.704 160.217,190.200 160.000 C 189.760 159.811,189.130 159.656,188.800 159.656 C 188.422 159.656,188.496 159.783,189.000 160.000 M145.870 163.262 L 143.800 165.325 146.000 163.390 C 147.210 162.325,148.275 161.397,148.367 161.327 C 148.458 161.257,148.400 161.200,148.237 161.200 C 148.074 161.200,147.009 162.128,145.870 163.262 M195.200 162.525 C 195.200 162.594,195.785 163.179,196.500 163.825 L 197.800 165.000 196.625 163.700 C 195.530 162.488,195.200 162.216,195.200 162.525 M309.844 163.800 C 310.173 165.271,310.402 165.590,310.394 164.567 C 310.391 164.145,310.205 163.530,309.982 163.200 C 309.685 162.762,309.648 162.924,309.844 163.800 M129.800 166.000 C 129.650 166.473,129.617 166.950,129.727 167.060 C 129.837 167.170,130.050 166.873,130.200 166.400 C 130.350 165.927,130.383 165.450,130.273 165.340 C 130.163 165.230,129.950 165.527,129.800 166.000 M310.909 168.800 C 310.909 169.790,310.987 170.195,311.082 169.700 C 311.178 169.205,311.178 168.395,311.082 167.900 C 310.987 167.405,310.909 167.810,310.909 168.800 M297.656 168.000 C 297.656 168.330,297.811 168.960,298.000 169.400 C 298.217 169.904,298.344 169.978,298.344 169.600 C 298.344 169.270,298.189 168.640,298.000 168.200 C 297.783 167.696,297.656 167.622,297.656 168.000 M16.428 168.374 C 16.341 170.140,20.286 175.200,21.751 175.200 C 21.975 175.200,21.422 174.659,20.524 173.999 C 18.706 172.662,17.795 171.438,16.994 169.262 C 16.698 168.458,16.444 168.058,16.428 168.374 M129.056 169.284 C 128.921 169.788,128.827 170.560,128.846 171.000 C 128.865 171.440,129.045 171.098,129.246 170.240 C 129.636 168.578,129.470 167.740,129.056 169.284 M141.850 170.850 C 141.517 172.517,141.840 172.840,142.200 171.200 C 142.352 170.509,142.393 169.859,142.291 169.758 C 142.189 169.656,141.991 170.147,141.850 170.850 M200.302 174.600 C 200.417 176.360,200.577 177.875,200.656 177.967 C 200.923 178.275,200.709 173.812,200.398 172.600 C 200.224 171.919,200.182 172.785,200.302 174.600 M335.526 172.414 C 334.715 172.842,333.939 173.375,333.802 173.597 C 333.664 173.819,334.217 173.609,335.031 173.129 C 335.844 172.649,337.160 172.129,337.955 171.974 C 339.318 171.708,339.331 171.690,338.200 171.664 C 337.540 171.648,336.337 171.986,335.526 172.414 M379.861 171.900 C 379.759 172.065,380.572 172.137,381.668 172.059 C 383.339 171.941,383.980 172.117,385.631 173.143 C 386.714 173.816,387.600 174.280,387.600 174.175 C 387.600 172.827,380.568 170.760,379.861 171.900 M213.328 174.400 C 213.328 175.830,213.401 176.415,213.489 175.700 C 213.578 174.985,213.578 173.815,213.489 173.100 C 213.401 172.385,213.328 172.970,213.328 174.400 M340.200 172.464 C 340.640 172.706,341.638 173.466,342.417 174.152 C 343.372 174.994,343.282 174.847,342.140 173.700 C 341.209 172.765,340.211 172.005,339.923 172.012 C 339.635 172.019,339.760 172.222,340.200 172.464 M81.669 173.831 C 80.717 174.584,80.102 175.200,80.302 175.200 C 80.503 175.200,81.372 174.577,82.233 173.817 C 84.237 172.047,83.914 172.055,81.669 173.831 M311.353 177.000 C 311.353 179.640,311.418 180.668,311.497 179.284 C 311.575 177.901,311.574 175.741,311.495 174.484 C 311.416 173.228,311.352 174.360,311.353 177.000 M128.257 175.100 C 127.934 177.054,128.017 217.839,128.347 219.376 C 128.486 220.023,128.600 209.988,128.600 197.076 C 128.600 184.164,128.579 173.600,128.552 173.600 C 128.526 173.600,128.393 174.275,128.257 175.100 M298.542 177.000 C 298.541 178.980,298.608 179.840,298.692 178.912 C 298.776 177.984,298.777 176.364,298.695 175.312 C 298.612 174.260,298.543 175.020,298.542 177.000 M141.387 197.000 C 141.387 209.540,141.438 214.612,141.500 208.272 C 141.562 201.931,141.562 191.671,141.500 185.472 C 141.438 179.272,141.387 184.460,141.387 197.000 M331.595 176.013 C 330.897 177.696,331.256 177.807,332.049 176.154 C 332.407 175.409,332.563 174.800,332.398 174.800 C 332.232 174.800,331.871 175.346,331.595 176.013 M22.800 175.594 C 23.130 175.811,23.835 175.991,24.367 175.994 C 25.651 176.002,25.325 175.775,23.600 175.458 C 22.615 175.277,22.378 175.318,22.800 175.594 M77.800 175.600 C 76.693 175.882,76.677 175.909,77.600 175.947 C 78.150 175.969,78.870 175.813,79.200 175.600 C 79.881 175.160,79.529 175.160,77.800 175.600 M26.082 179.369 C 26.020 182.057,25.831 183.142,25.315 183.769 L 24.630 184.600 25.531 183.772 C 26.361 183.011,26.422 182.658,26.299 179.372 L 26.165 175.800 26.082 179.369 M36.159 181.600 C 36.159 184.790,36.221 186.095,36.297 184.500 C 36.373 182.905,36.373 180.295,36.297 178.700 C 36.221 177.105,36.159 178.410,36.159 181.600 M388.600 178.200 C 388.600 179.368,388.732 180.116,388.894 179.862 C 389.056 179.608,389.188 178.860,389.188 178.200 C 389.188 177.540,389.056 176.792,388.894 176.538 C 388.732 176.284,388.600 177.032,388.600 178.200 M346.575 179.332 C 347.191 180.139,347.776 180.800,347.875 180.800 C 348.153 180.800,346.421 178.460,345.909 178.144 C 345.659 177.989,345.959 178.524,346.575 179.332 M331.210 179.129 C 331.196 179.856,333.084 183.014,333.918 183.659 C 334.557 184.153,334.558 184.137,333.934 183.393 C 333.567 182.957,332.807 181.700,332.244 180.600 C 331.681 179.500,331.216 178.838,331.210 179.129 M349.191 182.788 C 349.657 183.441,350.242 184.102,350.491 184.256 C 350.741 184.411,350.441 183.876,349.825 183.068 C 348.488 181.315,347.984 181.092,349.191 182.788 M76.000 183.329 C 76.000 183.424,77.845 184.902,80.100 186.612 C 82.355 188.322,84.425 189.896,84.700 190.110 C 84.975 190.323,85.200 190.406,85.200 190.294 C 85.200 190.181,83.455 188.764,81.322 187.145 C 76.356 183.375,76.000 183.119,76.000 183.329 M369.159 184.900 C 367.143 187.522,367.089 187.600,367.303 187.600 C 367.413 187.600,368.251 186.610,369.165 185.400 C 370.078 184.190,370.745 183.200,370.647 183.200 C 370.548 183.200,369.879 183.965,369.159 184.900 M297.800 184.800 C 297.648 185.491,297.607 186.141,297.709 186.242 C 297.811 186.344,298.009 185.853,298.150 185.150 C 298.483 183.483,298.160 183.160,297.800 184.800 M310.854 184.800 C 310.819 185.350,310.696 186.250,310.583 186.800 L 310.377 187.800 310.807 186.815 C 311.043 186.274,311.165 185.374,311.078 184.815 L 310.920 183.800 310.854 184.800 M22.800 185.649 C 21.406 186.871,21.405 186.872,22.688 186.019 C 23.396 185.548,24.082 184.991,24.212 184.781 C 24.597 184.157,24.277 184.354,22.800 185.649 M335.375 185.732 C 335.991 186.539,336.576 187.200,336.675 187.200 C 336.953 187.200,335.221 184.860,334.709 184.544 C 334.459 184.389,334.759 184.924,335.375 185.732 M385.144 185.100 C 383.875 186.632,383.419 187.342,383.881 187.065 C 384.393 186.758,386.169 184.400,385.889 184.400 C 385.798 184.400,385.463 184.715,385.144 185.100 M352.087 186.584 C 352.809 187.566,353.547 188.376,353.727 188.384 C 353.907 188.393,353.390 187.590,352.579 186.600 C 350.683 184.286,350.390 184.277,352.087 186.584 M65.625 186.681 C 65.586 187.437,66.487 189.200,66.913 189.200 C 67.135 189.200,67.115 188.979,66.865 188.678 C 66.627 188.392,66.256 187.717,66.041 187.178 C 65.827 186.640,65.639 186.417,65.625 186.681 M18.340 188.923 C 13.857 192.423,13.207 192.986,13.204 193.381 C 13.202 193.591,13.875 193.124,14.700 192.344 C 15.525 191.564,17.325 190.077,18.700 189.039 C 20.075 188.002,21.200 187.074,21.200 186.977 C 21.200 186.697,21.140 186.737,18.340 188.923 M35.420 188.337 C 35.291 188.743,34.386 189.649,33.408 190.351 C 32.430 191.054,31.500 191.837,31.343 192.093 C 30.962 192.709,33.163 191.130,34.745 189.652 C 35.435 189.007,36.000 188.281,36.000 188.040 C 36.000 187.356,35.679 187.521,35.420 188.337 M337.200 187.848 C 337.200 188.058,337.753 188.853,338.429 189.615 L 339.658 191.000 338.545 189.400 C 337.933 188.520,337.380 187.725,337.316 187.633 C 337.252 187.542,337.200 187.638,337.200 187.848 M382.000 189.200 C 381.530 189.860,381.236 190.400,381.346 190.400 C 381.456 190.400,381.930 189.860,382.400 189.200 C 382.870 188.540,383.164 188.000,383.054 188.000 C 382.944 188.000,382.470 188.540,382.000 189.200 M87.586 192.521 C 88.789 193.775,89.834 194.800,89.909 194.800 C 90.266 194.800,88.817 193.194,87.200 191.797 C 85.559 190.380,85.593 190.443,87.586 192.521 M69.344 191.109 C 69.660 191.621,72.000 193.353,72.000 193.075 C 72.000 192.976,71.339 192.391,70.532 191.775 C 69.724 191.159,69.189 190.859,69.344 191.109 M292.820 192.431 C 291.840 193.074,291.214 193.600,291.427 193.600 C 291.864 193.600,294.800 191.672,294.800 191.386 C 294.800 191.129,294.814 191.122,292.820 192.431 M29.185 193.629 L 27.800 194.858 29.300 193.781 C 30.626 192.830,31.057 192.400,30.685 192.400 C 30.622 192.400,29.947 192.953,29.185 193.629 M72.682 193.641 C 73.225 194.315,76.800 196.946,76.800 196.673 C 76.800 196.576,75.765 195.719,74.500 194.770 C 73.235 193.821,72.417 193.313,72.682 193.641 M358.482 194.778 C 359.244 195.756,360.122 196.637,360.433 196.736 C 360.745 196.835,360.609 196.575,360.131 196.158 C 359.654 195.741,358.776 194.860,358.180 194.200 C 357.585 193.540,357.721 193.800,358.482 194.778 M288.600 194.000 C 288.096 194.217,288.022 194.344,288.400 194.344 C 288.730 194.344,289.360 194.189,289.800 194.000 C 290.304 193.783,290.378 193.656,290.000 193.656 C 289.670 193.656,289.040 193.811,288.600 194.000 M10.586 196.419 C 9.771 197.529,9.181 198.514,9.275 198.608 C 9.368 198.702,10.108 197.793,10.919 196.589 C 12.770 193.841,12.558 193.733,10.586 196.419 M23.430 197.811 C 22.127 198.795,21.190 199.600,21.347 199.600 C 21.669 199.600,26.000 196.390,26.000 196.152 C 26.000 195.887,25.849 195.984,23.430 197.811 M77.200 196.918 C 77.200 197.020,78.047 197.797,79.081 198.645 C 80.116 199.493,80.834 199.978,80.676 199.723 C 80.340 199.179,77.200 196.645,77.200 196.918 M92.400 198.800 C 92.849 199.680,93.306 200.400,93.416 200.400 C 93.526 200.400,93.249 199.680,92.800 198.800 C 92.351 197.920,91.894 197.200,91.784 197.200 C 91.674 197.200,91.951 197.920,92.400 198.800 M304.600 199.200 C 303.741 200.080,303.209 200.785,303.419 200.766 C 303.786 200.734,306.665 197.600,306.328 197.600 C 306.237 197.600,305.459 198.320,304.600 199.200 M19.626 201.322 L 18.651 202.600 19.926 201.425 C 21.251 200.203,21.403 199.985,20.900 200.022 C 20.735 200.034,20.162 200.619,19.626 201.322 M81.772 201.118 C 82.196 201.615,82.955 202.691,83.459 203.511 C 83.963 204.330,84.381 204.861,84.388 204.692 C 84.409 204.167,82.550 201.420,81.754 200.801 C 81.042 200.247,81.043 200.264,81.772 201.118 M47.759 201.530 C 46.812 202.321,45.833 203.966,46.131 204.264 C 46.239 204.372,46.443 204.095,46.585 203.648 C 46.727 203.201,47.387 202.377,48.052 201.818 C 48.717 201.258,49.113 200.806,48.931 200.813 C 48.749 200.821,48.221 201.143,47.759 201.530 M52.835 200.900 C 52.928 200.955,53.633 201.540,54.402 202.200 L 55.800 203.400 54.625 202.100 C 53.979 201.385,53.274 200.800,53.058 200.800 C 52.843 200.800,52.743 200.845,52.835 200.900 M7.049 203.815 C 6.912 204.173,6.815 204.766,6.834 205.133 C 6.853 205.500,7.027 205.269,7.221 204.620 C 7.598 203.358,7.465 202.733,7.049 203.815 M55.915 209.136 C 56.066 216.277,55.509 215.615,61.287 215.514 L 66.200 215.427 61.300 215.301 L 56.400 215.175 56.394 209.888 C 56.391 206.979,56.256 204.391,56.094 204.136 C 55.932 203.881,55.852 206.131,55.915 209.136 M95.088 206.400 C 95.211 207.610,95.377 208.675,95.456 208.767 C 95.753 209.111,95.530 205.767,95.204 205.000 C 94.992 204.502,94.949 205.031,95.088 206.400 M254.400 223.750 C 254.400 232.853,254.307 240.907,254.192 241.650 C 254.031 242.699,254.069 242.822,254.364 242.200 C 254.584 241.738,254.756 234.259,254.772 224.481 L 254.800 207.562 265.162 207.681 C 270.862 207.746,275.441 207.665,275.339 207.500 C 275.236 207.335,270.483 207.200,264.776 207.200 L 254.400 207.200 254.400 223.750 M16.585 227.200 C 16.585 237.870,16.637 242.235,16.700 236.900 C 16.763 231.565,16.763 222.835,16.700 217.500 C 16.637 212.165,16.585 216.530,16.585 227.200 M85.200 227.226 C 85.200 239.895,85.056 246.751,84.778 247.326 C 84.370 248.170,84.377 248.174,84.978 247.424 C 85.583 246.669,85.997 208.000,85.400 208.000 C 85.290 208.000,85.200 216.652,85.200 227.226 M6.185 227.600 C 6.185 238.270,6.237 242.635,6.300 237.300 C 6.363 231.965,6.363 223.235,6.300 217.900 C 6.237 212.565,6.185 216.930,6.185 227.600 M369.540 209.516 C 370.033 210.209,370.644 210.904,370.897 211.060 C 371.150 211.217,370.954 210.777,370.460 210.084 C 369.967 209.391,369.356 208.696,369.103 208.540 C 368.850 208.383,369.046 208.823,369.540 209.516 M292.760 211.800 C 293.434 213.105,293.988 213.828,293.985 213.400 C 293.983 213.180,293.614 212.550,293.164 212.000 C 292.621 211.336,292.485 211.269,292.760 211.800 M38.517 215.497 C 40.011 215.574,42.351 215.574,43.717 215.496 C 45.082 215.418,43.860 215.355,41.000 215.355 C 38.140 215.356,37.022 215.420,38.517 215.497 M295.149 215.800 C 295.365 216.240,295.834 216.960,296.193 217.400 L 296.844 218.200 296.451 217.400 C 296.235 216.960,295.766 216.240,295.407 215.800 L 294.756 215.000 295.149 215.800 M32.959 216.330 C 32.114 217.036,31.199 218.465,31.201 219.074 C 31.202 219.253,31.553 218.825,31.981 218.123 C 32.410 217.421,33.264 216.573,33.880 216.239 C 34.496 215.905,34.730 215.631,34.400 215.629 C 34.070 215.628,33.421 215.943,32.959 216.330 M67.820 215.906 C 68.029 216.074,68.735 216.659,69.388 217.206 C 70.284 217.956,70.432 218.004,69.988 217.400 C 69.254 216.401,68.318 215.629,67.820 215.613 C 67.580 215.605,67.580 215.713,67.820 215.906 M200.470 218.000 C 200.426 219.210,200.296 220.650,200.183 221.200 L 199.977 222.200 200.406 221.218 C 200.642 220.678,200.771 219.238,200.693 218.018 L 200.551 215.800 200.470 218.000 M213.324 219.400 C 213.326 220.720,213.401 221.212,213.490 220.493 C 213.579 219.774,213.577 218.694,213.486 218.093 C 213.395 217.492,213.322 218.080,213.324 219.400 M358.214 218.235 C 357.841 218.804,357.610 219.344,357.701 219.434 C 357.791 219.525,358.106 219.149,358.400 218.599 C 359.132 217.233,359.689 217.342,360.936 219.095 C 361.521 219.918,362.000 220.446,362.000 220.269 C 362.000 219.668,359.908 217.200,359.399 217.200 C 359.120 217.200,358.587 217.666,358.214 218.235 M281.800 218.800 C 282.141 219.460,282.511 220.000,282.621 220.000 C 282.731 220.000,282.541 219.460,282.200 218.800 C 281.859 218.140,281.489 217.600,281.379 217.600 C 281.269 217.600,281.459 218.140,281.800 218.800 M70.658 219.665 C 70.810 220.610,70.675 221.569,70.277 222.365 C 69.939 223.044,69.810 223.600,69.992 223.600 C 70.863 223.600,71.494 219.880,70.805 218.800 C 70.541 218.386,70.496 218.655,70.658 219.665 M341.923 219.100 C 341.000 220.176,338.738 223.600,338.950 223.600 C 339.053 223.600,339.956 222.430,340.956 221.000 C 342.739 218.449,343.114 217.712,341.923 219.100 M377.775 220.132 C 378.391 220.939,378.976 221.600,379.075 221.600 C 379.353 221.600,377.621 219.260,377.109 218.944 C 376.859 218.789,377.159 219.324,377.775 220.132 M297.549 219.800 C 297.765 220.240,298.234 220.960,298.593 221.400 L 299.244 222.200 298.851 221.400 C 298.635 220.960,298.166 220.240,297.807 219.800 L 297.156 219.000 297.549 219.800 M180.369 222.510 C 176.857 224.876,176.234 228.905,179.022 231.218 C 179.393 231.526,179.225 231.083,178.648 230.233 C 176.371 226.877,178.376 222.826,182.734 221.977 C 184.173 221.697,184.177 221.691,182.959 221.646 C 182.265 221.620,181.124 222.000,180.369 222.510 M284.200 222.800 C 284.541 223.460,284.911 224.000,285.021 224.000 C 285.131 224.000,284.941 223.460,284.600 222.800 C 284.259 222.140,283.889 221.600,283.779 221.600 C 283.669 221.600,283.859 222.140,284.200 222.800 M31.203 222.114 C 31.198 222.716,32.520 224.436,33.357 224.916 C 34.282 225.447,46.052 226.002,45.739 225.500 C 45.637 225.335,43.088 225.194,40.076 225.186 C 34.117 225.170,33.276 224.941,31.979 222.973 C 31.553 222.328,31.204 221.941,31.203 222.114 M141.844 223.000 C 142.173 224.471,142.402 224.790,142.394 223.767 C 142.391 223.345,142.205 222.730,141.982 222.400 C 141.685 221.962,141.648 222.124,141.844 223.000 M380.400 223.600 C 381.097 224.480,381.757 225.200,381.867 225.200 C 381.977 225.200,381.497 224.480,380.800 223.600 C 380.103 222.720,379.443 222.000,379.333 222.000 C 379.223 222.000,379.703 222.720,380.400 223.600 M299.724 223.400 C 300.062 224.060,300.638 224.960,301.004 225.400 C 301.370 225.840,301.265 225.480,300.770 224.600 C 299.680 222.658,298.864 221.722,299.724 223.400 M187.983 224.900 C 189.641 226.666,190.000 226.984,190.000 226.683 C 190.000 226.619,189.145 225.764,188.100 224.783 L 186.200 223.000 187.983 224.900 M365.540 225.116 C 366.033 225.809,366.644 226.504,366.897 226.660 C 367.150 226.817,366.954 226.377,366.460 225.684 C 365.967 224.991,365.356 224.296,365.103 224.140 C 364.850 223.983,365.046 224.423,365.540 225.116 M68.000 224.800 C 67.670 225.013,65.051 225.191,62.180 225.194 C 55.668 225.202,56.001 224.879,55.998 231.180 C 55.996 234.758,55.830 236.516,55.421 237.300 C 55.106 237.905,54.998 238.400,55.181 238.400 C 55.908 238.400,56.190 236.765,56.391 231.400 L 56.600 225.800 62.282 225.600 C 66.054 225.467,68.131 225.232,68.462 224.900 C 69.054 224.306,68.837 224.259,68.000 224.800 M286.360 226.200 C 287.034 227.505,287.588 228.228,287.585 227.800 C 287.583 227.580,287.214 226.950,286.764 226.400 C 286.221 225.736,286.085 225.669,286.360 226.200 M351.785 227.300 C 351.168 228.235,350.920 228.789,351.232 228.531 C 351.833 228.034,353.364 225.600,353.076 225.600 C 352.983 225.600,352.402 226.365,351.785 227.300 M382.791 226.788 C 383.257 227.441,383.842 228.102,384.091 228.256 C 384.341 228.411,384.041 227.876,383.425 227.068 C 382.088 225.315,381.584 225.092,382.791 226.788 M335.550 228.100 C 335.052 228.815,334.185 230.021,333.622 230.780 C 333.060 231.539,332.792 232.043,333.027 231.901 C 333.533 231.595,336.941 226.800,336.653 226.800 C 336.544 226.800,336.047 227.385,335.550 228.100 M368.175 228.532 C 368.791 229.339,369.376 230.000,369.475 230.000 C 369.753 230.000,368.021 227.660,367.509 227.344 C 367.259 227.189,367.559 227.724,368.175 228.532 M287.949 229.000 C 288.165 229.440,288.634 230.160,288.993 230.600 L 289.644 231.400 289.251 230.600 C 289.035 230.160,288.566 229.440,288.207 229.000 L 287.556 228.200 287.949 229.000 M145.400 230.400 C 146.259 231.280,147.052 232.000,147.162 232.000 C 147.272 232.000,146.659 231.280,145.800 230.400 C 144.941 229.520,144.148 228.800,144.038 228.800 C 143.928 228.800,144.541 229.520,145.400 230.400 M196.214 230.386 C 195.589 231.038,194.897 231.460,194.677 231.324 C 194.441 231.178,194.402 231.280,194.583 231.573 C 194.838 231.985,197.600 229.923,197.600 229.322 C 197.600 229.028,197.277 229.276,196.214 230.386 M349.123 231.100 C 348.418 231.921,347.890 232.800,348.101 232.800 C 348.183 232.800,348.649 232.260,349.137 231.600 C 350.101 230.296,350.092 229.972,349.123 231.100 M372.010 233.500 C 373.360 235.315,374.540 236.800,374.632 236.800 C 374.880 236.800,372.236 233.211,370.802 231.600 C 370.116 230.830,370.660 231.685,372.010 233.500 M290.124 232.600 C 290.462 233.260,291.038 234.160,291.404 234.600 C 291.770 235.040,291.665 234.680,291.170 233.800 C 290.080 231.858,289.264 230.922,290.124 232.600 M346.800 234.400 C 346.330 235.060,346.036 235.600,346.146 235.600 C 346.256 235.600,346.730 235.060,347.200 234.400 C 347.670 233.740,347.964 233.200,347.854 233.200 C 347.744 233.200,347.270 233.740,346.800 234.400 M151.600 233.982 C 151.930 234.205,152.545 234.391,152.967 234.394 C 153.990 234.402,153.671 234.173,152.200 233.844 C 151.324 233.648,151.162 233.685,151.600 233.982 M181.624 234.229 C 182.097 234.798,180.840 234.845,168.187 234.729 C 160.510 234.658,154.762 234.714,155.414 234.853 C 158.370 235.483,182.496 235.226,182.243 234.567 C 182.109 234.219,182.000 233.859,182.000 233.767 C 182.000 233.675,181.798 233.600,181.551 233.600 C 181.250 233.600,181.274 233.807,181.624 234.229 M208.653 235.300 L 207.933 236.600 208.758 235.600 C 209.489 234.713,209.814 234.000,209.486 234.000 C 209.424 234.000,209.049 234.585,208.653 235.300 M306.986 235.500 C 307.335 236.215,307.706 236.800,307.810 236.800 C 308.208 236.800,307.952 236.163,307.167 235.200 L 306.352 234.200 306.986 235.500 M329.765 236.211 C 329.173 236.987,328.759 237.687,328.844 237.767 C 328.930 237.846,329.493 237.212,330.096 236.356 C 331.465 234.414,331.218 234.306,329.765 236.211 M344.743 237.300 C 344.096 238.222,344.036 238.435,344.537 238.033 C 345.250 237.460,346.187 236.000,345.841 236.000 C 345.739 236.000,345.244 236.585,344.743 237.300 M46.016 236.714 C 45.991 237.508,47.218 239.186,48.157 239.643 C 49.000 240.054,49.000 240.054,48.145 239.327 C 47.675 238.927,47.007 238.060,46.661 237.400 C 46.315 236.740,46.025 236.431,46.016 236.714 M134.800 237.850 C 134.800 238.061,135.655 239.036,136.700 240.017 L 138.600 241.800 136.800 239.807 C 135.810 238.712,134.955 237.737,134.900 237.641 C 134.845 237.545,134.800 237.639,134.800 237.850 M342.784 240.023 C 342.305 240.696,341.979 241.313,342.061 241.394 C 342.143 241.476,342.614 240.926,343.108 240.171 C 344.223 238.471,343.971 238.356,342.784 240.023 M49.307 240.240 C 49.439 240.372,50.201 240.480,51.000 240.480 C 51.799 240.480,52.561 240.372,52.693 240.240 C 52.825 240.108,52.063 240.000,51.000 240.000 C 49.937 240.000,49.175 240.108,49.307 240.240 M327.693 241.600 C 327.693 242.370,327.775 242.685,327.876 242.300 C 327.976 241.915,327.976 241.285,327.876 240.900 C 327.775 240.515,327.693 240.830,327.693 241.600 M378.791 242.388 C 379.257 243.041,379.842 243.702,380.091 243.856 C 380.341 244.011,380.041 243.476,379.425 242.668 C 378.088 240.915,377.584 240.692,378.791 242.388 M392.032 243.249 C 391.938 245.167,387.585 247.826,385.027 247.527 C 384.273 247.439,383.744 247.510,383.852 247.684 C 385.033 249.595,393.110 245.192,392.264 243.097 C 392.137 242.783,392.052 242.839,392.032 243.249 M309.551 245.046 C 309.193 245.791,309.037 246.400,309.202 246.400 C 309.540 246.400,310.593 244.053,310.354 243.834 C 310.269 243.756,309.908 244.302,309.551 245.046 M328.763 244.698 C 330.390 247.075,335.666 249.111,336.538 247.700 C 336.640 247.535,335.953 247.461,335.012 247.536 C 332.951 247.700,331.150 246.859,329.237 244.839 C 327.875 243.401,327.875 243.401,328.763 244.698 M338.378 245.863 C 337.286 247.023,337.220 247.168,338.062 246.563 C 338.980 245.903,340.245 244.400,339.882 244.400 C 339.813 244.400,339.137 245.058,338.378 245.863 M381.600 245.800 C 382.346 246.570,383.047 247.200,383.157 247.200 C 383.267 247.200,382.746 246.570,382.000 245.800 C 381.254 245.030,380.553 244.400,380.443 244.400 C 380.333 244.400,380.854 245.030,381.600 245.800 M297.600 245.066 C 297.600 245.733,300.993 249.202,301.628 249.184 C 301.943 249.175,301.723 248.909,301.141 248.593 C 300.559 248.276,299.524 247.258,298.841 246.330 C 298.158 245.402,297.600 244.833,297.600 245.066 M147.633 246.144 C 147.725 246.223,148.340 246.408,149.000 246.556 C 149.876 246.752,150.038 246.715,149.600 246.418 C 149.060 246.053,147.232 245.798,147.633 246.144 M208.400 246.247 C 208.400 246.456,209.435 247.611,210.700 248.814 L 213.000 251.000 210.800 248.609 C 209.590 247.294,208.555 246.139,208.500 246.043 C 208.445 245.946,208.400 246.038,208.400 246.247 M95.259 247.200 C 95.220 247.750,95.089 248.650,94.967 249.200 C 94.776 250.062,94.808 250.102,95.197 249.491 C 95.446 249.102,95.577 248.202,95.489 247.491 C 95.364 246.487,95.313 246.422,95.259 247.200 M16.800 247.085 C 16.800 248.053,19.292 250.020,20.474 249.984 C 20.763 249.976,20.445 249.727,19.766 249.431 C 19.087 249.136,18.142 248.399,17.666 247.793 C 17.190 247.188,16.800 246.869,16.800 247.085 M150.900 247.076 C 151.285 247.176,151.915 247.176,152.300 247.076 C 152.685 246.975,152.370 246.893,151.600 246.893 C 150.830 246.893,150.515 246.975,150.900 247.076 M245.738 247.694 C 245.992 247.856,247.010 247.988,248.000 247.988 C 248.990 247.988,250.008 247.856,250.262 247.694 C 250.516 247.532,249.498 247.400,248.000 247.400 C 246.502 247.400,245.484 247.532,245.738 247.694 M163.300 247.900 C 167.645 247.964,174.755 247.964,179.100 247.900 C 183.445 247.835,179.890 247.782,171.200 247.782 C 162.510 247.782,158.955 247.835,163.300 247.900 M82.400 249.248 C 81.630 249.661,81.234 249.999,81.520 249.999 C 82.110 250.000,84.400 248.879,84.400 248.590 C 84.400 248.282,83.887 248.451,82.400 249.248 M302.900 249.476 C 303.285 249.576,303.915 249.576,304.300 249.476 C 304.685 249.375,304.370 249.293,303.600 249.293 C 302.830 249.293,302.515 249.375,302.900 249.476 M198.443 251.959 C 199.410 253.037,200.360 253.937,200.557 253.959 C 200.753 253.982,200.123 253.118,199.157 252.041 C 198.190 250.963,197.240 250.063,197.043 250.041 C 196.847 250.018,197.477 250.882,198.443 251.959 M93.878 251.805 C 93.512 252.572,93.295 253.200,93.396 253.200 C 93.670 253.200,94.884 250.751,94.701 250.568 C 94.614 250.481,94.244 251.038,93.878 251.805 M8.400 253.069 C 8.401 253.251,8.851 253.923,9.400 254.562 C 9.950 255.201,10.400 255.587,10.400 255.420 C 10.400 255.252,9.950 254.581,9.400 253.927 C 8.850 253.273,8.400 252.887,8.400 253.069 M214.000 254.462 C 214.000 255.608,213.681 256.571,212.971 257.562 L 211.942 259.000 213.171 257.615 C 214.272 256.374,215.036 252.800,214.200 252.800 C 214.090 252.800,214.000 253.548,214.000 254.462 M92.344 254.300 C 91.075 255.832,90.619 256.542,91.081 256.265 C 91.593 255.958,93.369 253.600,93.089 253.600 C 92.998 253.600,92.663 253.915,92.344 254.300 M11.600 256.738 C 11.600 257.186,14.803 258.930,15.093 258.640 C 15.225 258.508,15.148 258.400,14.922 258.400 C 14.697 258.400,13.857 257.955,13.056 257.412 C 12.255 256.869,11.600 256.566,11.600 256.738 M89.636 256.957 C 89.381 257.263,88.634 257.738,87.974 258.011 C 87.314 258.284,86.853 258.587,86.950 258.683 C 87.207 258.941,89.373 257.756,89.978 257.026 C 90.264 256.682,90.408 256.400,90.298 256.400 C 90.188 256.400,89.890 256.651,89.636 256.957 M18.538 260.094 C 19.119 260.463,82.753 260.442,83.685 260.072 C 84.062 259.922,69.454 259.800,51.224 259.800 C 32.993 259.800,18.284 259.932,18.538 260.094 M207.338 260.094 C 207.592 260.256,208.160 260.388,208.600 260.388 C 209.040 260.388,209.608 260.256,209.862 260.094 C 210.116 259.932,209.548 259.800,208.600 259.800 C 207.652 259.800,207.084 259.932,207.338 260.094 " stroke="none" fill="#a5b4c4" fill-rule="evenodd"></path><path id="path3" d="M40.928 146.300 C 46.608 146.362,55.788 146.362,61.328 146.300 C 66.868 146.237,62.220 146.186,51.000 146.186 C 39.780 146.186,35.248 146.237,40.928 146.300 M163.300 146.699 C 167.425 146.764,174.175 146.764,178.300 146.699 C 182.425 146.634,179.050 146.581,170.800 146.581 C 162.550 146.581,159.175 146.634,163.300 146.699 M245.817 146.692 C 244.597 147.002,243.208 148.030,242.757 148.957 L 242.346 149.800 243.073 148.983 C 244.907 146.921,243.937 147.014,265.961 146.790 L 286.600 146.579 266.600 146.536 C 255.600 146.512,246.248 146.582,245.817 146.692 M153.100 147.082 C 153.595 147.178,154.405 147.178,154.900 147.082 C 155.395 146.987,154.990 146.909,154.000 146.909 C 153.010 146.909,152.605 146.987,153.100 147.082 M186.700 147.082 C 187.195 147.178,188.005 147.178,188.500 147.082 C 188.995 146.987,188.590 146.909,187.600 146.909 C 186.610 146.909,186.205 146.987,186.700 147.082 M288.105 147.087 C 288.714 147.179,289.614 147.177,290.105 147.082 C 290.597 146.987,290.100 146.911,289.000 146.914 C 287.900 146.917,287.497 146.995,288.105 147.087 M190.400 147.600 C 190.950 147.776,191.760 147.920,192.200 147.920 C 192.833 147.920,192.792 147.854,192.000 147.600 C 191.450 147.424,190.640 147.280,190.200 147.280 C 189.567 147.280,189.608 147.346,190.400 147.600 M291.600 147.594 C 291.930 147.811,292.635 147.991,293.167 147.994 C 294.451 148.002,294.125 147.775,292.400 147.458 C 291.415 147.277,291.178 147.318,291.600 147.594 M23.178 148.744 C 22.200 149.373,20.952 150.408,20.404 151.044 C 19.471 152.127,19.496 152.119,20.804 150.927 C 21.572 150.228,23.010 149.195,24.000 148.632 C 24.990 148.070,25.610 147.607,25.378 147.605 C 25.146 147.602,24.156 148.115,23.178 148.744 M77.685 148.420 C 79.265 149.254,81.777 151.546,82.924 153.200 C 83.616 154.197,83.616 154.196,83.035 152.970 C 82.122 151.045,77.861 147.544,76.520 147.618 C 76.344 147.627,76.868 147.988,77.685 148.420 M144.900 149.034 C 144.185 149.346,143.600 149.690,143.600 149.798 C 143.600 149.976,146.776 148.851,147.167 148.535 C 147.595 148.188,146.062 148.526,144.900 149.034 M198.800 150.179 C 198.800 150.289,199.340 150.659,200.000 151.000 C 200.660 151.341,201.200 151.531,201.200 151.421 C 201.200 151.311,200.660 150.941,200.000 150.600 C 199.340 150.259,198.800 150.069,198.800 150.179 M241.857 151.500 C 241.532 153.468,241.619 241.046,241.947 242.577 C 242.086 243.224,242.200 222.659,242.200 196.877 C 242.200 171.095,242.179 150.000,242.152 150.000 C 242.126 150.000,241.993 150.675,241.857 151.500 M138.800 152.600 C 138.055 153.150,137.615 153.594,137.822 153.586 C 138.224 153.570,140.755 151.605,140.378 151.602 C 140.255 151.601,139.545 152.050,138.800 152.600 M204.980 154.800 C 208.233 158.383,208.742 158.865,207.303 157.000 C 206.623 156.120,205.292 154.680,204.344 153.800 C 203.111 152.656,203.292 152.940,204.980 154.800 M303.600 153.394 C 303.600 153.556,304.354 154.614,305.275 155.744 C 307.544 158.530,307.600 158.592,307.600 158.331 C 307.600 158.205,306.700 156.976,305.600 155.600 C 304.500 154.224,303.600 153.231,303.600 153.394 M17.756 155.043 C 17.424 155.837,17.226 156.559,17.314 156.648 C 17.403 156.736,17.759 156.087,18.105 155.204 C 18.889 153.209,18.582 153.068,17.756 155.043 M28.389 156.682 C 27.361 157.390,26.435 158.411,26.413 158.860 C 26.406 159.003,27.012 158.508,27.760 157.760 L 29.120 156.400 50.929 156.400 L 72.739 156.400 74.023 157.481 C 75.090 158.378,75.217 158.417,74.775 157.709 C 73.732 156.038,73.195 156.000,50.870 156.000 C 31.276 156.000,29.291 156.060,28.389 156.682 M84.752 157.287 C 84.937 158.398,84.993 158.455,85.119 157.654 C 85.201 157.133,85.103 156.543,84.901 156.341 C 84.679 156.119,84.621 156.493,84.752 157.287 M16.656 158.484 C 16.521 158.988,16.440 161.290,16.476 163.600 L 16.542 167.800 16.786 162.800 C 17.047 157.442,17.035 157.069,16.656 158.484 M155.676 158.740 C 155.168 158.883,161.867 159.000,170.561 159.000 C 179.256 159.000,186.062 158.878,185.685 158.728 C 184.811 158.381,156.911 158.392,155.676 158.740 M254.267 158.667 C 254.120 158.813,254.003 159.128,254.006 159.367 C 254.010 159.615,254.151 159.581,254.338 159.287 C 254.596 158.880,258.105 158.798,271.294 158.887 C 280.441 158.949,287.717 158.868,287.462 158.706 C 286.885 158.339,254.632 158.301,254.267 158.667 M85.353 163.400 C 85.353 166.040,85.418 167.068,85.497 165.684 C 85.575 164.301,85.574 162.141,85.495 160.884 C 85.416 159.628,85.352 160.760,85.353 163.400 M151.600 159.618 C 151.162 159.915,151.324 159.952,152.200 159.756 C 153.671 159.427,153.990 159.198,152.967 159.206 C 152.545 159.209,151.930 159.395,151.600 159.618 M187.600 159.355 C 187.600 159.440,188.130 159.587,188.779 159.682 C 189.427 159.777,189.867 159.708,189.755 159.528 C 189.557 159.207,187.600 159.050,187.600 159.355 M26.176 163.000 L 26.200 166.200 50.967 166.200 C 70.718 166.200,75.754 166.097,75.837 165.690 C 75.894 165.410,75.849 165.365,75.737 165.590 C 75.601 165.863,67.350 166.000,50.983 166.000 L 26.432 166.000 26.292 162.900 L 26.152 159.800 26.176 163.000 M131.665 161.817 C 130.995 163.288,131.123 163.602,131.847 162.265 C 132.186 161.640,132.388 161.054,132.296 160.963 C 132.205 160.871,131.921 161.256,131.665 161.817 M194.620 161.901 C 194.829 162.067,195.720 162.831,196.600 163.601 L 198.200 164.999 196.619 163.299 C 195.749 162.365,194.858 161.600,194.639 161.600 C 194.390 161.600,194.383 161.714,194.620 161.901 M295.366 162.800 C 296.003 163.570,296.852 164.920,297.253 165.800 C 297.654 166.680,297.986 167.120,297.991 166.778 C 298.002 165.991,295.982 162.793,294.973 162.000 C 294.552 161.670,294.729 162.030,295.366 162.800 M144.575 164.100 L 143.400 165.400 144.700 164.225 C 145.912 163.130,146.184 162.800,145.875 162.800 C 145.806 162.800,145.221 163.385,144.575 164.100 M129.849 167.015 C 129.712 167.373,129.621 168.146,129.646 168.733 C 129.680 169.532,129.770 169.398,130.004 168.200 C 130.335 166.500,130.262 165.940,129.849 167.015 M199.267 168.020 C 199.501 168.692,199.767 169.167,199.857 169.076 C 200.056 168.878,199.301 166.800,199.031 166.800 C 198.927 166.800,199.033 167.349,199.267 168.020 M16.832 168.340 C 16.793 169.007,17.967 171.532,18.457 171.835 C 18.655 171.958,18.472 171.370,18.050 170.529 C 17.628 169.688,17.188 168.730,17.073 168.400 C 16.921 167.966,16.854 167.949,16.832 168.340 M84.501 169.672 C 83.988 171.088,82.437 172.948,80.800 174.109 L 79.800 174.818 81.035 174.233 C 82.726 173.430,85.455 169.765,85.117 168.750 C 85.042 168.526,84.765 168.941,84.501 169.672 M298.514 171.000 C 298.517 172.100,298.595 172.503,298.687 171.895 C 298.779 171.286,298.777 170.386,298.682 169.895 C 298.587 169.403,298.511 169.900,298.514 171.000 M200.068 170.800 C 200.088 171.839,200.718 173.546,200.732 172.600 C 200.738 172.160,200.589 171.440,200.400 171.000 C 200.189 170.510,200.061 170.432,200.068 170.800 M212.487 171.000 C 212.491 171.440,212.632 172.340,212.800 173.000 C 213.074 174.078,213.106 174.098,213.113 173.200 C 213.117 172.650,212.976 171.750,212.800 171.200 C 212.549 170.416,212.481 170.373,212.487 171.000 M141.301 172.600 C 141.305 173.480,141.387 173.793,141.483 173.295 C 141.579 172.798,141.575 172.078,141.475 171.695 C 141.375 171.313,141.296 171.720,141.301 172.600 M310.959 177.200 C 310.959 180.390,311.021 181.695,311.097 180.100 C 311.173 178.505,311.173 175.895,311.097 174.300 C 311.021 172.705,310.959 174.010,310.959 177.200 M128.988 197.200 C 128.988 211.170,129.039 216.885,129.100 209.900 C 129.161 202.915,129.161 191.485,129.100 184.500 C 129.039 177.515,128.988 183.230,128.988 197.200 M338.800 172.400 C 339.130 172.613,339.670 172.788,340.000 172.788 C 340.533 172.788,340.533 172.745,340.000 172.400 C 339.670 172.187,339.130 172.012,338.800 172.012 C 338.267 172.012,338.267 172.055,338.800 172.400 M342.000 174.200 C 342.746 174.970,343.447 175.600,343.557 175.600 C 343.667 175.600,343.146 174.970,342.400 174.200 C 341.654 173.430,340.953 172.800,340.843 172.800 C 340.733 172.800,341.254 173.430,342.000 174.200 M378.001 173.798 C 377.486 174.348,377.139 174.864,377.232 174.946 C 377.324 175.028,377.819 174.578,378.330 173.947 C 379.476 172.535,379.274 172.444,378.001 173.798 M20.509 174.000 C 21.069 174.440,21.678 174.796,21.863 174.791 C 22.300 174.780,20.313 173.221,19.846 173.209 C 19.651 173.204,19.950 173.560,20.509 174.000 M298.946 177.000 C 298.947 179.200,299.014 180.049,299.095 178.887 C 299.176 177.724,299.176 175.924,299.093 174.887 C 299.011 173.849,298.945 174.800,298.946 177.000 M332.172 175.787 C 331.816 176.330,331.587 176.936,331.662 177.134 C 331.738 177.332,332.092 176.888,332.449 176.147 C 333.214 174.562,333.084 174.394,332.172 175.787 M140.654 177.056 C 140.321 179.487,140.392 214.808,140.735 217.400 C 140.881 218.500,141.000 209.455,141.000 197.300 C 141.000 185.145,140.979 175.200,140.954 175.200 C 140.929 175.200,140.794 176.035,140.654 177.056 M200.987 197.000 C 200.987 209.100,201.037 214.108,201.100 208.128 C 201.162 202.149,201.162 192.249,201.100 186.128 C 201.038 180.008,200.987 184.900,200.987 197.000 M387.761 175.494 C 387.914 175.765,388.206 176.755,388.409 177.694 L 388.778 179.400 388.621 177.652 C 388.534 176.690,388.243 175.700,387.973 175.452 C 387.605 175.112,387.552 175.123,387.761 175.494 M25.990 175.863 C 27.010 176.369,26.466 182.886,25.300 184.128 C 24.407 185.079,24.365 185.200,25.076 184.769 C 26.791 183.729,27.653 176.075,26.090 175.762 C 25.810 175.706,25.764 175.751,25.990 175.863 M35.871 175.862 C 35.722 176.011,35.600 178.748,35.600 181.943 L 35.600 187.752 33.300 189.939 L 31.000 192.126 33.111 190.417 C 35.975 188.097,36.000 188.022,36.000 181.626 L 36.000 176.000 50.788 176.000 L 65.576 176.000 65.707 181.001 L 65.837 186.001 65.819 180.901 L 65.800 175.800 50.971 175.695 C 42.816 175.638,36.021 175.713,35.871 175.862 M374.575 178.268 C 373.959 179.076,373.659 179.611,373.909 179.456 C 374.421 179.140,376.153 176.800,375.875 176.800 C 375.776 176.800,375.191 177.461,374.575 178.268 M345.940 179.116 C 346.433 179.809,347.044 180.504,347.297 180.660 C 347.550 180.817,347.354 180.377,346.860 179.684 C 346.367 178.991,345.756 178.296,345.503 178.140 C 345.250 177.983,345.446 178.423,345.940 179.116 M298.509 182.800 C 298.509 183.790,298.587 184.195,298.682 183.700 C 298.778 183.205,298.778 182.395,298.682 181.900 C 298.587 181.405,298.509 181.810,298.509 182.800 M348.575 182.532 C 349.191 183.339,349.776 184.000,349.875 184.000 C 350.153 184.000,348.421 181.660,347.909 181.344 C 347.659 181.189,347.959 181.724,348.575 182.532 M385.296 184.348 C 384.143 185.860,383.200 187.221,383.200 187.372 C 383.200 187.631,386.695 183.188,387.347 182.100 C 388.076 180.885,387.231 181.811,385.296 184.348 M75.600 183.064 C 75.600 183.282,76.095 183.897,76.700 184.430 L 77.800 185.400 76.800 184.200 C 76.250 183.540,75.755 182.925,75.700 182.833 C 75.645 182.742,75.600 182.845,75.600 183.064 M370.344 183.900 C 369.193 185.289,368.706 186.000,368.904 186.000 C 369.014 186.000,369.586 185.370,370.173 184.600 C 371.263 183.171,371.395 182.632,370.344 183.900 M335.991 185.988 C 336.457 186.641,337.042 187.302,337.291 187.456 C 337.541 187.611,337.241 187.076,336.625 186.268 C 335.288 184.515,334.784 184.292,335.991 185.988 M22.400 186.449 C 21.006 187.671,21.005 187.672,22.288 186.819 C 22.996 186.348,23.682 185.791,23.812 185.581 C 24.197 184.957,23.877 185.154,22.400 186.449 M78.000 185.337 C 78.000 185.464,79.395 186.591,81.100 187.841 C 82.805 189.090,84.425 190.289,84.700 190.505 C 84.975 190.721,85.200 190.808,85.200 190.697 C 85.200 190.587,84.165 189.722,82.900 188.776 C 81.635 187.830,80.015 186.617,79.300 186.080 C 78.585 185.544,78.000 185.209,78.000 185.337 M310.256 186.084 C 310.121 186.588,310.027 187.360,310.046 187.800 C 310.065 188.240,310.245 187.898,310.446 187.040 C 310.836 185.378,310.670 184.540,310.256 186.084 M66.016 186.886 C 65.994 187.826,67.912 189.928,70.254 191.534 C 72.186 192.858,71.632 192.284,68.639 189.863 C 67.781 189.168,66.843 188.060,66.555 187.400 C 66.246 186.691,66.025 186.481,66.016 186.886 M352.800 188.000 C 353.497 188.880,354.157 189.600,354.267 189.600 C 354.377 189.600,353.897 188.880,353.200 188.000 C 352.503 187.120,351.843 186.400,351.733 186.400 C 351.623 186.400,352.103 187.120,352.800 188.000 M366.575 188.900 C 364.321 191.893,363.879 192.595,365.115 191.219 C 366.295 189.905,368.850 186.400,368.628 186.400 C 368.534 186.400,367.610 187.525,366.575 188.900 M338.340 189.116 C 338.833 189.809,339.444 190.504,339.697 190.660 C 339.950 190.817,339.754 190.377,339.260 189.684 C 338.767 188.991,338.156 188.296,337.903 188.140 C 337.650 187.983,337.846 188.423,338.340 189.116 M18.000 189.635 L 16.600 190.848 18.095 189.924 C 18.917 189.416,19.592 188.865,19.595 188.700 C 19.602 188.264,19.538 188.302,18.000 189.635 M14.574 192.507 L 13.000 194.199 14.596 192.799 C 15.473 192.030,16.268 191.355,16.362 191.300 C 16.456 191.245,16.447 191.113,16.341 191.007 C 16.235 190.901,15.440 191.576,14.574 192.507 M85.600 190.853 C 85.600 190.977,86.590 192.068,87.800 193.278 C 89.010 194.488,90.000 195.365,90.000 195.225 C 90.000 195.086,89.010 193.995,87.800 192.800 C 86.590 191.605,85.600 190.729,85.600 190.853 M72.400 192.963 C 72.400 193.077,74.468 194.724,76.995 196.622 C 80.137 198.982,81.993 200.695,82.863 202.037 C 84.195 204.094,84.755 204.634,83.964 203.100 C 82.889 201.017,81.344 199.439,77.696 196.701 C 72.422 192.743,72.400 192.727,72.400 192.963 M362.400 194.400 C 361.703 195.280,361.223 196.000,361.333 196.000 C 361.443 196.000,362.103 195.280,362.800 194.400 C 363.497 193.520,363.977 192.800,363.867 192.800 C 363.757 192.800,363.097 193.520,362.400 194.400 M287.600 194.400 L 285.800 194.680 287.400 194.712 C 288.280 194.729,289.360 194.589,289.800 194.400 C 290.727 194.002,290.161 194.002,287.600 194.400 M11.483 195.800 C 10.869 196.570,10.489 197.200,10.639 197.200 C 10.936 197.200,11.774 196.212,12.421 195.100 C 13.057 194.007,12.703 194.271,11.483 195.800 M26.011 195.420 C 25.247 195.959,24.797 196.399,25.011 196.398 C 25.225 196.397,25.940 195.953,26.600 195.412 C 28.141 194.149,27.805 194.153,26.011 195.420 M254.537 194.894 C 254.792 195.056,261.480 195.153,269.400 195.110 C 277.320 195.066,282.000 194.981,279.800 194.919 C 269.990 194.642,254.116 194.627,254.537 194.894 M342.806 194.633 C 342.809 194.835,343.456 195.720,344.244 196.600 L 345.676 198.200 344.361 196.400 C 343.637 195.410,342.990 194.525,342.923 194.433 C 342.855 194.342,342.803 194.432,342.806 194.633 M377.144 195.100 C 375.993 196.489,375.506 197.200,375.704 197.200 C 375.814 197.200,376.386 196.570,376.973 195.800 C 378.063 194.371,378.195 193.832,377.144 195.100 M358.839 195.892 C 359.521 197.011,360.403 197.369,360.967 196.754 C 361.286 196.407,361.261 196.362,360.870 196.583 C 360.549 196.766,359.940 196.514,359.318 195.942 C 358.314 195.018,358.305 195.017,358.839 195.892 M91.457 197.791 C 92.013 198.786,92.547 199.600,92.642 199.600 C 92.923 199.600,91.248 196.477,90.829 196.218 C 90.618 196.088,90.901 196.795,91.457 197.791 M304.417 198.871 C 303.216 200.202,301.329 201.900,300.222 202.645 C 299.116 203.390,298.356 204.000,298.533 204.000 C 299.556 204.000,306.800 197.541,306.800 196.630 C 306.800 196.249,306.683 196.359,304.417 198.871 M22.340 198.185 C 20.577 199.479,17.200 203.656,17.200 204.543 C 17.200 204.771,17.711 204.156,18.336 203.178 C 19.628 201.154,21.172 199.485,23.200 197.919 C 25.219 196.360,24.541 196.569,22.340 198.185 M373.904 199.215 C 372.487 201.263,372.773 201.254,374.400 199.200 C 375.097 198.320,375.517 197.607,375.334 197.615 C 375.150 197.624,374.507 198.344,373.904 199.215 M346.575 199.732 C 347.191 200.539,347.776 201.200,347.875 201.200 C 348.153 201.200,346.421 198.860,345.909 198.544 C 345.659 198.389,345.959 198.924,346.575 199.732 M49.246 201.163 C 48.900 201.382,49.350 201.447,50.446 201.335 C 52.455 201.130,54.581 202.191,55.188 203.703 C 55.418 204.274,55.558 204.371,55.575 203.970 C 55.651 202.064,51.047 200.022,49.246 201.163 M370.600 203.600 C 369.584 204.920,368.843 206.000,368.953 206.000 C 369.063 206.000,369.984 204.920,371.000 203.600 C 372.016 202.280,372.757 201.200,372.647 201.200 C 372.537 201.200,371.616 202.280,370.600 203.600 M47.229 202.654 C 46.773 203.234,46.405 203.909,46.412 204.154 C 46.419 204.399,46.624 204.240,46.868 203.800 C 47.112 203.360,47.585 202.685,47.918 202.300 C 48.251 201.915,48.419 201.600,48.291 201.600 C 48.163 201.600,47.685 202.074,47.229 202.654 M93.656 202.000 C 93.656 202.330,93.811 202.960,94.000 203.400 C 94.217 203.904,94.344 203.978,94.344 203.600 C 94.344 203.270,94.189 202.640,94.000 202.200 C 93.783 201.696,93.656 201.622,93.656 202.000 M349.191 203.188 C 349.657 203.841,350.242 204.502,350.491 204.656 C 350.741 204.811,350.441 204.276,349.825 203.468 C 348.488 201.715,347.984 201.492,349.191 203.188 M94.468 205.200 C 94.462 205.750,94.611 206.560,94.800 207.000 L 95.144 207.800 95.132 207.000 C 95.126 206.560,94.976 205.750,94.800 205.200 L 94.480 204.200 94.468 205.200 M46.087 210.100 L 46.000 215.600 40.500 215.601 C 31.617 215.604,28.074 219.811,33.259 224.198 L 34.200 224.994 33.350 223.997 C 29.084 218.993,31.795 216.000,40.593 216.000 C 47.005 216.000,46.465 216.589,46.299 209.779 L 46.174 204.600 46.087 210.100 M55.758 210.200 C 55.758 213.280,55.821 214.487,55.897 212.882 C 55.973 211.278,55.973 208.758,55.896 207.282 C 55.819 205.807,55.757 207.120,55.758 210.200 M16.600 206.400 C 16.448 207.091,16.407 207.741,16.509 207.842 C 16.611 207.944,16.809 207.453,16.950 206.750 C 17.283 205.083,16.960 204.760,16.600 206.400 M6.654 207.456 C 6.323 209.876,6.401 246.719,6.740 247.922 C 6.883 248.429,7.000 239.114,7.000 227.222 C 7.000 215.330,6.979 205.600,6.954 205.600 C 6.929 205.600,6.794 206.435,6.654 207.456 M85.400 226.976 C 85.400 238.277,85.532 247.316,85.694 247.062 C 86.063 246.482,86.042 208.047,85.672 207.115 C 85.522 206.738,85.400 215.675,85.400 226.976 M254.184 207.227 C 254.039 207.461,254.028 207.761,254.160 207.893 C 254.292 208.025,254.400 207.923,254.400 207.667 C 254.400 206.974,274.822 207.006,275.601 207.700 C 276.078 208.125,276.082 208.096,275.632 207.500 C 274.998 206.662,254.692 206.404,254.184 207.227 M291.000 209.600 C 291.341 210.260,291.711 210.800,291.821 210.800 C 291.931 210.800,291.741 210.260,291.400 209.600 C 291.059 208.940,290.689 208.400,290.579 208.400 C 290.469 208.400,290.659 208.940,291.000 209.600 M347.600 211.600 C 346.704 212.920,346.060 214.000,346.170 214.000 C 346.280 214.000,347.104 212.920,348.000 211.600 C 348.896 210.280,349.540 209.200,349.430 209.200 C 349.320 209.200,348.496 210.280,347.600 211.600 M277.400 210.800 C 277.741 211.460,278.111 212.000,278.221 212.000 C 278.331 212.000,278.141 211.460,277.800 210.800 C 277.459 210.140,277.089 209.600,276.979 209.600 C 276.869 209.600,277.059 210.140,277.400 210.800 M370.800 211.600 C 371.497 212.480,372.157 213.200,372.267 213.200 C 372.377 213.200,371.897 212.480,371.200 211.600 C 370.503 210.720,369.843 210.000,369.733 210.000 C 369.623 210.000,370.103 210.720,370.800 211.600 M278.749 213.000 C 278.965 213.440,279.434 214.160,279.793 214.600 L 280.444 215.400 280.051 214.600 C 279.835 214.160,279.366 213.440,279.007 213.000 L 278.356 212.200 278.749 213.000 M61.820 215.978 C 69.672 216.288,72.041 218.244,69.790 222.560 C 69.458 223.197,69.255 223.789,69.340 223.874 C 69.797 224.330,70.865 220.953,70.661 219.698 C 70.126 216.399,68.262 215.579,61.520 215.678 L 56.200 215.757 61.820 215.978 M355.825 221.027 C 354.815 222.472,354.172 223.541,354.396 223.402 C 354.872 223.108,358.119 218.400,357.846 218.400 C 357.745 218.400,356.835 219.582,355.825 221.027 M341.406 220.288 L 340.704 221.400 341.630 220.511 C 342.139 220.022,342.455 219.522,342.332 219.399 C 342.209 219.276,341.792 219.676,341.406 220.288 M141.309 221.200 C 141.309 222.190,141.387 222.595,141.482 222.100 C 141.578 221.605,141.578 220.795,141.482 220.300 C 141.387 219.805,141.309 220.210,141.309 221.200 M212.600 221.600 C 212.446 222.510,212.411 223.344,212.521 223.454 C 212.631 223.564,212.846 222.910,213.000 222.000 C 213.154 221.090,213.189 220.256,213.079 220.146 C 212.969 220.036,212.754 220.690,212.600 221.600 M363.791 222.347 C 364.872 223.724,365.941 224.964,366.166 225.103 C 366.391 225.242,365.690 224.229,364.609 222.853 C 363.528 221.476,362.459 220.236,362.234 220.097 C 362.009 219.958,362.710 220.971,363.791 222.347 M200.200 222.400 C 200.048 223.091,200.007 223.741,200.109 223.842 C 200.211 223.944,200.409 223.453,200.550 222.750 C 200.883 221.083,200.560 220.760,200.200 222.400 M179.170 223.868 L 178.200 224.936 179.287 224.168 C 179.886 223.746,180.381 223.265,180.387 223.100 C 180.408 222.607,180.189 222.746,179.170 223.868 M188.814 226.210 C 190.236 227.756,191.482 228.964,191.581 228.895 C 191.681 228.827,190.518 227.562,188.996 226.085 L 186.228 223.400 188.814 226.210 M285.800 224.800 C 286.141 225.460,286.511 226.000,286.621 226.000 C 286.731 226.000,286.541 225.460,286.200 224.800 C 285.859 224.140,285.489 223.600,285.379 223.600 C 285.269 223.600,285.459 224.140,285.800 224.800 M381.375 225.332 C 381.991 226.139,382.576 226.800,382.675 226.800 C 382.953 226.800,381.221 224.460,380.709 224.144 C 380.459 223.989,380.759 224.524,381.375 225.332 M37.318 225.098 C 39.033 225.173,41.733 225.172,43.318 225.097 C 44.903 225.021,43.500 224.959,40.200 224.960 C 36.900 224.961,35.603 225.022,37.318 225.098 M56.080 225.280 C 55.757 225.603,55.600 227.425,55.600 230.854 C 55.600 236.323,55.363 237.443,53.925 238.786 C 53.302 239.367,53.221 239.565,53.676 239.391 C 55.367 238.745,55.791 237.247,56.000 231.200 L 56.200 225.400 62.000 225.183 L 67.800 224.966 62.180 224.883 C 58.243 224.825,56.416 224.944,56.080 225.280 M129.606 225.633 C 129.609 226.165,129.789 226.870,130.006 227.200 C 130.282 227.622,130.323 227.385,130.142 226.400 C 129.825 224.675,129.598 224.349,129.606 225.633 M211.829 226.229 C 211.681 226.815,211.638 227.372,211.732 227.466 C 211.827 227.560,212.024 227.158,212.171 226.571 C 212.319 225.985,212.362 225.428,212.268 225.334 C 212.173 225.240,211.976 225.642,211.829 226.229 M46.078 230.720 C 45.995 236.409,46.247 237.465,48.059 238.998 L 49.000 239.794 48.160 238.797 C 46.683 237.045,46.604 236.699,46.378 231.000 L 46.157 225.400 46.078 230.720 M367.191 226.788 C 367.657 227.441,368.242 228.102,368.491 228.256 C 368.741 228.411,368.441 227.876,367.825 227.068 C 366.488 225.315,365.984 225.092,367.191 226.788 M351.150 227.700 C 350.652 228.415,349.785 229.621,349.222 230.380 C 348.660 231.139,348.426 231.623,348.702 231.455 C 349.243 231.127,352.553 226.400,352.242 226.400 C 352.139 226.400,351.647 226.985,351.150 227.700 M302.215 228.300 C 303.556 230.385,304.000 230.977,304.000 230.680 C 304.000 230.296,301.955 227.200,301.701 227.200 C 301.595 227.200,301.826 227.695,302.215 228.300 M384.000 228.800 C 384.697 229.680,385.357 230.400,385.467 230.400 C 385.577 230.400,385.097 229.680,384.400 228.800 C 383.703 227.920,383.043 227.200,382.933 227.200 C 382.823 227.200,383.303 227.920,384.000 228.800 M288.200 228.800 C 288.541 229.460,288.911 230.000,289.021 230.000 C 289.131 230.000,288.941 229.460,288.600 228.800 C 288.259 228.140,287.889 227.600,287.779 227.600 C 287.669 227.600,287.859 228.140,288.200 228.800 M130.406 228.633 C 130.409 229.055,130.595 229.670,130.818 230.000 C 131.115 230.438,131.152 230.276,130.956 229.400 C 130.627 227.929,130.398 227.610,130.406 228.633 M177.616 228.120 C 177.586 228.720,178.746 230.657,179.474 231.222 C 180.160 231.755,180.164 231.742,179.550 230.993 C 179.193 230.557,178.615 229.660,178.266 229.000 C 177.917 228.340,177.625 227.944,177.616 228.120 M196.626 230.313 C 195.215 232.003,195.188 232.075,196.360 231.000 C 197.471 229.982,198.688 228.370,198.314 228.413 C 198.251 228.420,197.492 229.275,196.626 230.313 M144.604 229.952 C 145.979 231.505,148.712 233.601,149.360 233.599 C 149.602 233.598,149.170 233.220,148.400 232.760 C 147.630 232.300,146.192 231.175,145.204 230.262 C 143.799 228.962,143.669 228.895,144.604 229.952 M131.228 231.000 C 131.228 231.220,131.486 231.850,131.800 232.400 C 132.114 232.950,132.372 233.220,132.372 233.000 C 132.372 232.780,132.114 232.150,131.800 231.600 C 131.486 231.050,131.228 230.780,131.228 231.000 M304.615 232.300 C 305.956 234.385,306.400 234.977,306.400 234.680 C 306.400 234.296,304.355 231.200,304.101 231.200 C 303.995 231.200,304.226 231.695,304.615 232.300 M332.000 233.600 C 331.530 234.260,331.236 234.800,331.346 234.800 C 331.456 234.800,331.930 234.260,332.400 233.600 C 332.870 232.940,333.164 232.400,333.054 232.400 C 332.944 232.400,332.470 232.940,332.000 233.600 M388.000 234.000 C 388.697 234.880,389.357 235.600,389.467 235.600 C 389.577 235.600,389.097 234.880,388.400 234.000 C 387.703 233.120,387.043 232.400,386.933 232.400 C 386.823 232.400,387.303 233.120,388.000 234.000 M153.600 234.800 C 154.150 234.976,155.050 235.117,155.600 235.113 C 156.498 235.106,156.478 235.074,155.400 234.800 C 153.708 234.369,152.256 234.369,153.600 234.800 M291.960 235.000 C 292.634 236.305,293.188 237.028,293.185 236.600 C 293.183 236.380,292.814 235.750,292.364 235.200 C 291.821 234.536,291.685 234.469,291.960 235.000 M134.412 236.868 C 135.115 237.896,136.242 239.246,136.916 239.868 C 137.818 240.701,137.705 240.472,136.487 239.000 C 133.418 235.291,133.129 234.994,134.412 236.868 M164.500 235.499 C 167.745 235.566,173.055 235.566,176.300 235.499 C 179.545 235.432,176.890 235.377,170.400 235.377 C 163.910 235.377,161.255 235.432,164.500 235.499 M306.815 235.800 C 306.817 236.020,307.186 236.650,307.636 237.200 C 308.179 237.864,308.315 237.931,308.040 237.400 C 307.366 236.095,306.812 235.372,306.815 235.800 M344.496 237.005 C 343.332 238.803,343.600 238.800,344.973 237.000 C 345.560 236.230,345.897 235.602,345.720 235.605 C 345.544 235.608,344.993 236.238,344.496 237.005 M206.233 238.034 C 205.629 238.712,205.214 239.347,205.311 239.445 C 205.409 239.542,205.973 238.987,206.565 238.211 C 207.892 236.471,207.711 236.375,206.233 238.034 M294.360 239.000 C 295.034 240.305,295.588 241.028,295.585 240.600 C 295.583 240.380,295.214 239.750,294.764 239.200 C 294.221 238.536,294.085 238.469,294.360 239.000 M50.105 239.887 C 50.714 239.979,51.614 239.977,52.105 239.882 C 52.597 239.787,52.100 239.711,51.000 239.714 C 49.900 239.717,49.497 239.795,50.105 239.887 M328.114 241.400 C 328.117 242.500,328.195 242.903,328.287 242.295 C 328.379 241.686,328.377 240.786,328.282 240.295 C 328.187 239.803,328.111 240.300,328.114 241.400 M392.101 241.400 C 392.105 242.280,392.187 242.593,392.283 242.095 C 392.379 241.598,392.375 240.878,392.275 240.495 C 392.175 240.113,392.096 240.520,392.101 241.400 M378.000 240.573 C 378.000 241.024,381.397 245.312,382.451 246.191 C 383.052 246.692,382.945 246.472,382.160 245.591 C 381.479 244.826,380.264 243.319,379.460 242.242 C 378.657 241.166,378.000 240.415,378.000 240.573 M203.615 241.200 C 203.621 241.530,203.890 242.149,204.213 242.576 C 204.968 243.575,204.963 243.205,204.202 241.746 C 203.874 241.116,203.610 240.870,203.615 241.200 M340.364 242.900 C 339.874 243.615,338.917 244.828,338.237 245.596 C 337.036 246.952,337.033 246.963,338.142 245.996 C 339.255 245.026,341.830 241.600,341.446 241.600 C 341.341 241.600,340.854 242.185,340.364 242.900 M296.749 243.000 C 296.965 243.440,297.434 244.160,297.793 244.600 L 298.444 245.400 298.051 244.600 C 297.835 244.160,297.366 243.440,297.007 243.000 L 296.356 242.200 296.749 243.000 M389.978 245.500 L 388.600 247.000 390.100 245.622 C 391.496 244.338,391.784 244.000,391.478 244.000 C 391.412 244.000,390.737 244.675,389.978 245.500 M252.000 245.932 C 251.094 246.815,251.083 246.864,251.878 246.451 C 252.360 246.201,252.873 245.805,253.018 245.571 C 253.510 244.775,253.002 244.955,252.000 245.932 M299.193 246.706 C 300.051 247.994,301.867 249.215,302.880 249.184 C 303.166 249.176,302.770 248.901,302.000 248.573 C 301.230 248.245,300.088 247.397,299.462 246.689 L 298.324 245.400 299.193 246.706 M149.800 246.400 C 150.240 246.589,150.870 246.744,151.200 246.744 C 151.578 246.744,151.504 246.617,151.000 246.400 C 150.560 246.211,149.930 246.056,149.600 246.056 C 149.222 246.056,149.296 246.183,149.800 246.400 M190.800 246.400 C 190.267 246.745,190.267 246.788,190.800 246.788 C 191.130 246.788,191.670 246.613,192.000 246.400 C 192.533 246.055,192.533 246.012,192.000 246.012 C 191.670 246.012,191.130 246.187,190.800 246.400 M16.416 247.131 C 16.395 247.820,18.580 250.005,19.269 249.984 C 19.561 249.975,19.309 249.701,18.708 249.376 C 18.108 249.050,17.350 248.292,17.024 247.692 C 16.699 247.091,16.425 246.839,16.416 247.131 M154.200 247.200 C 154.860 247.368,155.940 247.505,156.600 247.505 L 157.800 247.505 156.600 247.200 C 155.940 247.032,154.860 246.895,154.200 246.895 L 153.000 246.895 154.200 247.200 M185.600 247.200 C 184.250 247.484,184.243 247.495,185.400 247.500 C 186.060 247.503,187.140 247.368,187.800 247.200 C 189.460 246.778,187.607 246.778,185.600 247.200 M210.200 248.800 C 211.283 249.900,212.260 250.800,212.370 250.800 C 212.480 250.800,211.683 249.900,210.600 248.800 C 209.517 247.700,208.540 246.800,208.430 246.800 C 208.320 246.800,209.117 247.700,210.200 248.800 M245.600 247.182 C 245.930 247.405,246.545 247.591,246.967 247.594 C 247.990 247.602,247.671 247.373,246.200 247.044 C 245.324 246.848,245.162 246.885,245.600 247.182 M249.200 247.200 C 248.376 247.464,248.341 247.526,249.000 247.554 C 249.440 247.573,250.070 247.413,250.400 247.200 C 251.101 246.747,250.614 246.747,249.200 247.200 M94.600 248.400 C 94.448 249.091,94.414 249.747,94.524 249.857 C 94.634 249.967,94.848 249.491,95.000 248.800 C 95.152 248.109,95.186 247.453,95.076 247.343 C 94.966 247.233,94.752 247.709,94.600 248.400 M83.800 249.050 C 83.081 249.662,82.934 249.905,83.433 249.657 C 84.166 249.293,85.541 247.976,85.149 248.014 C 85.067 248.022,84.460 248.488,83.800 249.050 M35.530 250.300 C 44.181 250.360,58.221 250.360,66.730 250.300 C 75.238 250.240,68.160 250.190,51.000 250.190 C 33.840 250.190,26.878 250.240,35.530 250.300 M201.216 254.300 C 203.283 256.555,205.043 258.400,205.127 258.400 C 205.411 258.400,201.276 253.809,199.362 252.000 C 198.315 251.010,199.149 252.045,201.216 254.300 M8.000 251.433 C 8.000 252.565,11.992 256.974,13.800 257.838 C 14.460 258.153,14.654 258.184,14.232 257.906 C 12.447 256.731,10.189 254.480,9.133 252.822 C 8.510 251.844,8.000 251.219,8.000 251.433 M90.800 255.313 C 89.810 256.244,88.550 257.324,88.000 257.712 L 87.000 258.418 88.200 257.841 C 89.227 257.347,93.304 253.583,92.783 253.609 C 92.682 253.614,91.790 254.381,90.800 255.313 M211.637 258.319 C 210.578 259.159,209.867 259.391,208.451 259.360 C 206.960 259.327,206.804 259.384,207.590 259.675 C 208.955 260.179,210.459 259.748,212.036 258.398 C 213.752 256.931,213.460 256.873,211.637 258.319 M18.000 259.600 C 19.368 260.038,20.419 260.038,19.400 259.600 C 18.960 259.411,18.240 259.262,17.800 259.268 C 17.157 259.277,17.196 259.343,18.000 259.600 M82.600 259.600 C 81.581 260.038,82.632 260.038,84.000 259.600 C 84.804 259.343,84.843 259.277,84.200 259.268 C 83.760 259.262,83.040 259.411,82.600 259.600 " stroke="none" fill="#94a4ba" fill-rule="evenodd"></path><path id="path4" d="M254.184 177.000 C 254.184 186.680,254.236 190.583,254.300 185.673 C 254.363 180.763,254.363 172.843,254.300 168.073 C 254.236 163.303,254.184 167.320,254.184 177.000 M75.724 163.000 C 75.726 164.320,75.801 164.812,75.890 164.093 C 75.979 163.374,75.977 162.294,75.886 161.693 C 75.795 161.092,75.722 161.680,75.724 163.000 M128.586 197.200 C 128.586 208.970,128.637 213.785,128.700 207.900 C 128.762 202.015,128.762 192.385,128.700 186.500 C 128.637 180.615,128.586 185.430,128.586 197.200 M75.740 179.600 C 75.740 181.470,75.809 182.235,75.893 181.300 C 75.977 180.365,75.977 178.835,75.893 177.900 C 75.809 176.965,75.740 177.730,75.740 179.600 M213.386 197.000 C 213.386 208.220,213.437 212.868,213.500 207.328 C 213.562 201.788,213.562 192.608,213.500 186.928 C 213.437 181.248,213.386 185.780,213.386 197.000 M140.985 196.800 C 140.985 207.470,141.037 211.835,141.100 206.500 C 141.163 201.165,141.163 192.435,141.100 187.100 C 141.037 181.765,140.985 186.130,140.985 196.800 M254.183 224.600 C 254.183 233.840,254.236 237.563,254.300 232.873 C 254.364 228.183,254.364 220.623,254.299 216.073 C 254.235 211.523,254.183 215.360,254.183 224.600 M95.385 227.600 C 95.385 238.050,95.436 242.325,95.500 237.100 C 95.563 231.875,95.563 223.325,95.500 218.100 C 95.436 212.875,95.385 217.150,95.385 227.600 " stroke="none" fill="#9dacc0" fill-rule="evenodd"></path></g></svg>